<svg width="433" height="433" viewBox="0 0 433 433" fill="none" xmlns="http://www.w3.org/2000/svg">
<path d="M433 216.5C433.075 267.605 414.998 317.077 381.991 356.094C380.793 357.517 379.572 358.918 378.328 360.311C363.694 376.77 346.647 390.912 327.769 402.256C323.439 404.855 319.014 407.305 314.494 409.605C314.037 409.837 313.573 410.069 313.116 410.294C312.569 410.571 312.015 410.841 311.46 411.11C300.023 416.708 288.11 421.276 275.861 424.76C274.588 425.119 273.312 425.469 272.033 425.808C255.921 430.071 239.37 432.457 222.71 432.918C221.841 432.94 220.987 432.955 220.163 432.97C219.871 432.978 219.586 432.985 219.302 432.985C218.365 432.993 217.436 433 216.5 433C198.943 433.013 181.45 430.892 164.405 426.685C162.697 426.265 160.997 425.823 159.304 425.359C150.386 422.924 141.635 419.914 133.106 416.347C128.611 414.474 124.197 412.454 119.862 410.286C118.88 409.792 117.899 409.297 116.932 408.788C116.52 408.586 116.116 408.368 115.711 408.159C92.6068 395.964 71.8872 379.708 54.5445 360.169C53.3459 358.828 52.1697 357.465 51.0086 356.094C31.9002 333.438 17.6465 307.1 9.13049 278.712C0.614445 250.324 -1.98269 220.489 1.49994 191.057C4.98257 161.624 14.4708 133.219 29.377 107.603C44.2832 81.9857 64.29 59.702 88.1582 42.1314C89.3868 41.2249 90.6228 40.3259 91.8739 39.4495C92.1211 39.2772 92.3683 39.1049 92.6155 38.9326C114.598 23.5348 139.27 12.3927 165.357 6.08298C166.84 5.7159 168.323 5.37131 169.821 5.04918C198.077 -1.13141 227.278 -1.64323 255.732 3.54341C257.223 3.82059 258.714 4.10527 260.197 4.41241C286.05 9.71517 310.707 19.7279 332.938 33.9508C333.432 34.2654 333.927 34.5801 334.421 34.9097C335.418 35.554 336.414 36.2132 337.395 36.8799C366.844 56.6783 390.969 83.419 407.642 114.744C424.315 146.068 433.024 181.015 433 216.5V216.5Z" fill="#F2F2F2"/>
<path d="M161.813 328.503L92.6156 334.646L91.8739 334.713V39.4495C92.1211 39.2772 92.3683 39.1049 92.6156 38.9325C107.037 28.8452 122.637 20.5583 139.069 14.256L142.605 63.0247L142.927 67.4896L146.426 115.854L147.505 130.732L161.686 326.78L161.813 328.503Z" fill="#CCCCCC"/>
<path d="M332.938 33.9508C333.432 34.2654 333.927 34.5801 334.421 34.9097V334.714L332.938 334.579L264.49 328.503L264.617 326.78L278.798 130.732L279.877 115.854L283.375 67.4896L283.697 63.0247L287.406 11.8813C303.397 17.4244 318.68 24.832 332.938 33.9508V33.9508Z" fill="#CCCCCC"/>
<path d="M332.938 33.9508V338.804C332.938 344.655 328.908 349.411 323.948 349.411H101.605C97.4999 349.411 94.0164 346.145 92.9602 341.688C92.7296 340.744 92.6139 339.776 92.6156 338.804V38.9325C92.3683 39.1049 92.1211 39.2772 91.8739 39.4495C90.6229 40.3259 89.3868 41.2249 88.1582 42.1314V338.804C88.0918 343.248 89.7514 347.544 92.7878 350.79C94.3801 352.458 96.394 353.664 98.6161 354.281C99.5903 354.546 100.596 354.679 101.605 354.678H323.948C324.96 354.679 325.968 354.545 326.945 354.281C332.923 352.67 337.395 346.348 337.395 338.804V36.8799C336.414 36.2132 335.418 35.554 334.421 34.9097C333.927 34.5801 333.432 34.2654 332.938 33.9508Z" fill="#CCCCCC"/>
<path d="M335.169 63.0277H90.387V67.4918H335.169V63.0277Z" fill="#CCCCCC"/>
<path d="M165.357 6.08298C166.84 5.7159 168.323 5.37131 169.821 5.04918V126.267H165.357V6.08298Z" fill="#CCCCCC"/>
<path d="M255.732 3.54341C257.223 3.82059 258.714 4.10527 260.197 4.41241V126.267H255.732V3.54341Z" fill="#CCCCCC"/>
<path d="M363.068 326.78H69.9243C64.5956 326.78 59.4852 328.897 55.7172 332.665C51.9493 336.433 49.8325 341.543 49.8325 346.872C49.8325 352.201 51.9493 357.311 55.7172 361.079C59.4852 364.847 64.5956 366.964 69.9243 366.964H363.068C365.922 366.964 368.742 366.356 371.341 365.179C373.941 364.002 376.259 362.284 378.141 360.139C378.993 359.17 379.75 358.121 380.403 357.008C380.909 356.154 381.347 355.262 381.714 354.341C382.938 351.293 383.395 347.991 383.046 344.725C382.697 341.459 381.552 338.329 379.712 335.608C377.871 332.888 375.391 330.66 372.49 329.121C369.588 327.582 366.353 326.778 363.068 326.78V326.78Z" fill="#CCCCCC"/>
<path d="M335.169 115.853H91.875V130.733H335.169V115.853Z" fill="#CCCCCC"/>
<path d="M211.29 111.389H215.754C216.829 111.389 217.893 111.6 218.886 112.012C219.879 112.423 220.781 113.026 221.541 113.786C222.301 114.546 222.904 115.448 223.315 116.441C223.726 117.434 223.938 118.498 223.938 119.573V119.573H203.106C203.106 117.402 203.968 115.321 205.503 113.786C207.037 112.251 209.119 111.389 211.29 111.389H211.29Z" fill="#CCCCCC"/>
<path d="M381.991 356.094C375.483 363.805 368.444 371.052 360.926 377.781H72.0743C64.5556 371.052 57.5165 363.805 51.0086 356.094H381.991Z" fill="#3F3D56"/>
<path d="M240.682 280.978H192.048C191.786 280.975 191.525 281.016 191.277 281.098C190.749 281.261 190.287 281.589 189.959 282.034C189.632 282.479 189.455 283.018 189.456 283.57V360.401H243.282V283.57C243.281 283.229 243.214 282.892 243.083 282.577C242.952 282.262 242.76 281.976 242.519 281.735C242.278 281.495 241.991 281.304 241.676 281.174C241.361 281.044 241.023 280.977 240.682 280.978ZM222.276 318.884C222.278 320.131 221.867 321.342 221.107 322.33C220.382 323.289 219.375 323.997 218.227 324.353C217.079 324.709 215.848 324.695 214.708 324.315C213.568 323.934 212.576 323.205 211.872 322.231C211.168 321.257 210.787 320.086 210.784 318.884V309.97C210.798 308.455 211.41 307.007 212.486 305.941C213.562 304.875 215.015 304.277 216.53 304.277C218.045 304.277 219.498 304.875 220.574 305.941C221.65 307.007 222.262 308.455 222.276 309.97V318.884Z" fill="#2F2E41"/>
<path d="M189.291 357.944V365.353C189.291 365.737 189.443 366.106 189.714 366.378C189.985 366.651 190.353 366.805 190.737 366.806H242.001C242.384 366.803 242.751 366.649 243.022 366.377C243.293 366.105 243.445 365.737 243.446 365.353V357.944H189.291Z" fill="#3F3D56"/>
<path d="M321.214 161.079H113.329C111.543 161.081 109.831 161.791 108.567 163.054C107.303 164.316 106.591 166.028 106.587 167.814V308.097C106.588 309.884 107.299 311.599 108.563 312.863C109.827 314.127 111.541 314.838 113.329 314.839H321.214C323.002 314.838 324.716 314.127 325.98 312.863C327.244 311.599 327.955 309.884 327.956 308.097V167.814C327.952 166.028 327.24 164.316 325.976 163.054C324.713 161.791 323 161.081 321.214 161.079V161.079Z" fill="#3F3D56"/>
<path d="M319.476 165.948H115.06C114.103 165.95 113.187 166.332 112.511 167.009C111.836 167.686 111.456 168.603 111.456 169.559V306.366C111.458 307.321 111.838 308.237 112.513 308.912C113.189 309.588 114.104 309.968 115.06 309.97H319.476C320.431 309.968 321.347 309.588 322.022 308.912C322.698 308.237 323.078 307.321 323.079 306.366V169.559C323.079 168.603 322.7 167.686 322.024 167.009C321.349 166.332 320.432 165.95 319.476 165.948V165.948Z" fill="#655DBB"/>
<path d="M281.855 366.687L279.967 357.719C279.888 357.354 279.72 357.013 279.477 356.73C279.233 356.446 278.923 356.227 278.573 356.094C278.32 355.995 278.051 355.944 277.779 355.944H159.933C159.661 355.944 159.392 355.995 159.139 356.094C158.789 356.227 158.479 356.446 158.235 356.73C157.992 357.013 157.824 357.354 157.745 357.719L155.857 366.687C155.789 367.012 155.794 367.349 155.873 367.672C155.951 367.995 156.1 368.297 156.31 368.555C156.519 368.814 156.784 369.022 157.084 369.165C157.384 369.309 157.712 369.383 158.045 369.383H279.66C279.993 369.385 280.323 369.311 280.624 369.167C280.925 369.023 281.19 368.813 281.398 368.552C281.608 368.294 281.757 367.993 281.837 367.671C281.916 367.348 281.922 367.012 281.855 366.687V366.687Z" fill="#2F2E41"/>
<path d="M164.177 357.559H161.162C160.96 357.559 160.797 357.723 160.797 357.925V359.441C160.797 359.643 160.96 359.806 161.162 359.806H164.177C164.379 359.806 164.542 359.643 164.542 359.441V357.925C164.542 357.723 164.379 357.559 164.177 357.559Z" fill="#3F3D56"/>
<path d="M171.668 357.559H168.654C168.452 357.559 168.288 357.723 168.288 357.925V359.441C168.288 359.643 168.452 359.806 168.654 359.806H171.668C171.87 359.806 172.034 359.643 172.034 359.441V357.925C172.034 357.723 171.87 357.559 171.668 357.559Z" fill="#3F3D56"/>
<path d="M179.159 357.559H176.145C175.943 357.559 175.779 357.723 175.779 357.925V359.441C175.779 359.643 175.943 359.806 176.145 359.806H179.159C179.361 359.806 179.525 359.643 179.525 359.441V357.925C179.525 357.723 179.361 357.559 179.159 357.559Z" fill="#3F3D56"/>
<path d="M186.651 357.559H183.636C183.434 357.559 183.271 357.723 183.271 357.925V359.441C183.271 359.643 183.434 359.806 183.636 359.806H186.651C186.853 359.806 187.016 359.643 187.016 359.441V357.925C187.016 357.723 186.853 357.559 186.651 357.559Z" fill="#3F3D56"/>
<path d="M194.142 357.559H191.128C190.926 357.559 190.762 357.723 190.762 357.925V359.441C190.762 359.643 190.926 359.806 191.128 359.806H194.142C194.344 359.806 194.508 359.643 194.508 359.441V357.925C194.508 357.723 194.344 357.559 194.142 357.559Z" fill="#3F3D56"/>
<path d="M201.633 357.559H198.619C198.417 357.559 198.253 357.723 198.253 357.925V359.441C198.253 359.643 198.417 359.806 198.619 359.806H201.633C201.835 359.806 201.999 359.643 201.999 359.441V357.925C201.999 357.723 201.835 357.559 201.633 357.559Z" fill="#3F3D56"/>
<path d="M209.125 357.559H206.11C205.908 357.559 205.745 357.723 205.745 357.925V359.441C205.745 359.643 205.908 359.806 206.11 359.806H209.125C209.327 359.806 209.49 359.643 209.49 359.441V357.925C209.49 357.723 209.327 357.559 209.125 357.559Z" fill="#3F3D56"/>
<path d="M216.616 357.559H213.602C213.4 357.559 213.236 357.723 213.236 357.925V359.441C213.236 359.643 213.4 359.806 213.602 359.806H216.616C216.818 359.806 216.982 359.643 216.982 359.441V357.925C216.982 357.723 216.818 357.559 216.616 357.559Z" fill="#3F3D56"/>
<path d="M224.107 357.559H221.093C220.891 357.559 220.727 357.723 220.727 357.925V359.441C220.727 359.643 220.891 359.806 221.093 359.806H224.107C224.309 359.806 224.473 359.643 224.473 359.441V357.925C224.473 357.723 224.309 357.559 224.107 357.559Z" fill="#3F3D56"/>
<path d="M231.599 357.559H228.584C228.382 357.559 228.219 357.723 228.219 357.925V359.441C228.219 359.643 228.382 359.806 228.584 359.806H231.599C231.801 359.806 231.964 359.643 231.964 359.441V357.925C231.964 357.723 231.801 357.559 231.599 357.559Z" fill="#3F3D56"/>
<path d="M239.09 357.559H236.076C235.874 357.559 235.71 357.723 235.71 357.925V359.441C235.71 359.643 235.874 359.806 236.076 359.806H239.09C239.292 359.806 239.456 359.643 239.456 359.441V357.925C239.456 357.723 239.292 357.559 239.09 357.559Z" fill="#3F3D56"/>
<path d="M246.581 357.559H243.567C243.365 357.559 243.201 357.723 243.201 357.925V359.441C243.201 359.643 243.365 359.806 243.567 359.806H246.581C246.783 359.806 246.947 359.643 246.947 359.441V357.925C246.947 357.723 246.783 357.559 246.581 357.559Z" fill="#3F3D56"/>
<path d="M254.073 357.559H251.058C250.857 357.559 250.693 357.723 250.693 357.925V359.441C250.693 359.643 250.857 359.806 251.058 359.806H254.073C254.275 359.806 254.438 359.643 254.438 359.441V357.925C254.438 357.723 254.275 357.559 254.073 357.559Z" fill="#3F3D56"/>
<path d="M261.564 357.559H258.55C258.348 357.559 258.184 357.723 258.184 357.925V359.441C258.184 359.643 258.348 359.806 258.55 359.806H261.564C261.766 359.806 261.93 359.643 261.93 359.441V357.925C261.93 357.723 261.766 357.559 261.564 357.559Z" fill="#3F3D56"/>
<path d="M269.055 357.559H266.041C265.839 357.559 265.675 357.723 265.675 357.925V359.441C265.675 359.643 265.839 359.806 266.041 359.806H269.055C269.257 359.806 269.421 359.643 269.421 359.441V357.925C269.421 357.723 269.257 357.559 269.055 357.559Z" fill="#3F3D56"/>
<path d="M276.547 357.559H273.533C273.331 357.559 273.167 357.723 273.167 357.925V359.441C273.167 359.643 273.331 359.806 273.533 359.806H276.547C276.749 359.806 276.913 359.643 276.913 359.441V357.925C276.913 357.723 276.749 357.559 276.547 357.559Z" fill="#3F3D56"/>
<path d="M164.088 361.305H161.074C160.872 361.305 160.708 361.468 160.708 361.67V363.186C160.708 363.388 160.872 363.552 161.074 363.552H164.088C164.29 363.552 164.454 363.388 164.454 363.186V361.67C164.454 361.468 164.29 361.305 164.088 361.305Z" fill="#3F3D56"/>
<path d="M171.579 361.305H168.565C168.363 361.305 168.199 361.468 168.199 361.67V363.186C168.199 363.388 168.363 363.552 168.565 363.552H171.579C171.781 363.552 171.945 363.388 171.945 363.186V361.67C171.945 361.468 171.781 361.305 171.579 361.305Z" fill="#3F3D56"/>
<path d="M179.071 361.305H176.056C175.855 361.305 175.691 361.468 175.691 361.67V363.186C175.691 363.388 175.855 363.552 176.056 363.552H179.071C179.273 363.552 179.436 363.388 179.436 363.186V361.67C179.436 361.468 179.273 361.305 179.071 361.305Z" fill="#3F3D56"/>
<path d="M186.562 361.305H183.548C183.346 361.305 183.182 361.468 183.182 361.67V363.186C183.182 363.388 183.346 363.552 183.548 363.552H186.562C186.764 363.552 186.928 363.388 186.928 363.186V361.67C186.928 361.468 186.764 361.305 186.562 361.305Z" fill="#3F3D56"/>
<path d="M194.053 361.305H191.039C190.837 361.305 190.673 361.468 190.673 361.67V363.186C190.673 363.388 190.837 363.552 191.039 363.552H194.053C194.255 363.552 194.419 363.388 194.419 363.186V361.67C194.419 361.468 194.255 361.305 194.053 361.305Z" fill="#3F3D56"/>
<path d="M201.545 361.305H198.531C198.329 361.305 198.165 361.468 198.165 361.67V363.186C198.165 363.388 198.329 363.552 198.531 363.552H201.545C201.747 363.552 201.91 363.388 201.91 363.186V361.67C201.91 361.468 201.747 361.305 201.545 361.305Z" fill="#3F3D56"/>
<path d="M209.036 361.305H206.022C205.82 361.305 205.656 361.468 205.656 361.67V363.186C205.656 363.388 205.82 363.552 206.022 363.552H209.036C209.238 363.552 209.402 363.388 209.402 363.186V361.67C209.402 361.468 209.238 361.305 209.036 361.305Z" fill="#3F3D56"/>
<path d="M216.527 361.305H213.513C213.311 361.305 213.147 361.468 213.147 361.67V363.186C213.147 363.388 213.311 363.552 213.513 363.552H216.527C216.729 363.552 216.893 363.388 216.893 363.186V361.67C216.893 361.468 216.729 361.305 216.527 361.305Z" fill="#3F3D56"/>
<path d="M224.019 361.305H221.005C220.803 361.305 220.639 361.468 220.639 361.67V363.186C220.639 363.388 220.803 363.552 221.005 363.552H224.019C224.221 363.552 224.385 363.388 224.385 363.186V361.67C224.385 361.468 224.221 361.305 224.019 361.305Z" fill="#3F3D56"/>
<path d="M231.51 361.305H228.496C228.294 361.305 228.13 361.468 228.13 361.67V363.186C228.13 363.388 228.294 363.552 228.496 363.552H231.51C231.712 363.552 231.876 363.388 231.876 363.186V361.67C231.876 361.468 231.712 361.305 231.51 361.305Z" fill="#3F3D56"/>
<path d="M239.002 361.305H235.987C235.785 361.305 235.622 361.468 235.622 361.67V363.186C235.622 363.388 235.785 363.552 235.987 363.552H239.002C239.203 363.552 239.367 363.388 239.367 363.186V361.67C239.367 361.468 239.203 361.305 239.002 361.305Z" fill="#3F3D56"/>
<path d="M246.493 361.305H243.479C243.277 361.305 243.113 361.468 243.113 361.67V363.186C243.113 363.388 243.277 363.552 243.479 363.552H246.493C246.695 363.552 246.859 363.388 246.859 363.186V361.67C246.859 361.468 246.695 361.305 246.493 361.305Z" fill="#3F3D56"/>
<path d="M253.984 361.305H250.97C250.768 361.305 250.604 361.468 250.604 361.67V363.186C250.604 363.388 250.768 363.552 250.97 363.552H253.984C254.186 363.552 254.35 363.388 254.35 363.186V361.67C254.35 361.468 254.186 361.305 253.984 361.305Z" fill="#3F3D56"/>
<path d="M261.476 361.305H258.461C258.259 361.305 258.096 361.468 258.096 361.67V363.186C258.096 363.388 258.259 363.552 258.461 363.552H261.476C261.678 363.552 261.841 363.388 261.841 363.186V361.67C261.841 361.468 261.678 361.305 261.476 361.305Z" fill="#3F3D56"/>
<path d="M268.967 361.305H265.953C265.751 361.305 265.587 361.468 265.587 361.67V363.186C265.587 363.388 265.751 363.552 265.953 363.552H268.967C269.169 363.552 269.333 363.388 269.333 363.186V361.67C269.333 361.468 269.169 361.305 268.967 361.305Z" fill="#3F3D56"/>
<path d="M276.458 361.305H273.444C273.242 361.305 273.078 361.468 273.078 361.67V363.186C273.078 363.388 273.242 363.552 273.444 363.552H276.458C276.66 363.552 276.824 363.388 276.824 363.186V361.67C276.824 361.468 276.66 361.305 276.458 361.305Z" fill="#3F3D56"/>
<path d="M226.266 365.799H197.032C196.83 365.799 196.667 365.963 196.667 366.165V367.681C196.667 367.883 196.83 368.047 197.032 368.047H226.266C226.468 368.047 226.632 367.883 226.632 367.681V366.165C226.632 365.963 226.468 365.799 226.266 365.799Z" fill="#3F3D56"/>
<path d="M309.204 184.794H117.932C117.734 184.79 117.544 184.708 117.405 184.566C117.266 184.423 117.188 184.232 117.188 184.033C117.188 183.835 117.266 183.644 117.405 183.501C117.544 183.359 117.734 183.277 117.932 183.273H309.204C309.403 183.277 309.592 183.359 309.731 183.501C309.87 183.644 309.948 183.835 309.948 184.033C309.948 184.232 309.87 184.423 309.731 184.566C309.592 184.708 309.403 184.79 309.204 184.794V184.794Z" fill="#3F3D56"/>
<path d="M130.953 179.389C133.414 179.389 135.41 177.349 135.41 174.832C135.41 172.315 133.414 170.275 130.953 170.275C128.491 170.275 126.495 172.315 126.495 174.832C126.495 177.349 128.491 179.389 130.953 179.389Z" fill="#3F3D56"/>
<path d="M146.352 179.389C148.814 179.389 150.809 177.349 150.809 174.832C150.809 172.315 148.814 170.275 146.352 170.275C143.89 170.275 141.894 172.315 141.894 174.832C141.894 177.349 143.89 179.389 146.352 179.389Z" fill="#3F3D56"/>
<path d="M161.751 179.389C164.213 179.389 166.209 177.349 166.209 174.832C166.209 172.315 164.213 170.275 161.751 170.275C159.289 170.275 157.293 172.315 157.293 174.832C157.293 177.349 159.289 179.389 161.751 179.389Z" fill="#3F3D56"/>
<path d="M299.931 171.402H288.994C288.778 171.407 288.572 171.497 288.421 171.651C288.27 171.806 288.185 172.014 288.185 172.23C288.185 172.446 288.27 172.654 288.421 172.808C288.572 172.963 288.778 173.053 288.994 173.058H299.931C300.149 173.055 300.356 172.966 300.509 172.811C300.662 172.656 300.747 172.447 300.747 172.23C300.747 172.012 300.662 171.804 300.509 171.649C300.356 171.494 300.149 171.405 299.931 171.402Z" fill="#3F3D56"/>
<path d="M299.931 174.511H288.994C288.777 174.516 288.571 174.605 288.42 174.76C288.269 174.915 288.184 175.122 288.184 175.339C288.184 175.555 288.269 175.763 288.42 175.918C288.571 176.072 288.777 176.162 288.994 176.167H299.931C300.149 176.164 300.357 176.076 300.51 175.921C300.663 175.766 300.749 175.557 300.749 175.339C300.749 175.121 300.663 174.912 300.51 174.757C300.357 174.602 300.149 174.514 299.931 174.511V174.511Z" fill="#3F3D56"/>
<path d="M299.931 177.62H288.994C288.778 177.625 288.572 177.714 288.421 177.869C288.27 178.024 288.185 178.231 288.185 178.448C288.185 178.664 288.27 178.872 288.421 179.026C288.572 179.181 288.778 179.27 288.994 179.275H299.931C300.149 179.272 300.356 179.184 300.509 179.029C300.662 178.874 300.747 178.665 300.747 178.448C300.747 178.23 300.662 178.021 300.509 177.866C300.356 177.712 300.149 177.623 299.931 177.62V177.62Z" fill="#3F3D56"/>
<path d="M134.425 202.471H130.495C129.303 202.471 128.337 203.437 128.337 204.629C128.337 205.82 129.303 206.786 130.495 206.786H134.425C135.616 206.786 136.582 205.82 136.582 204.629C136.582 203.437 135.616 202.471 134.425 202.471Z" fill="#E6E6E6"/>
<path d="M179.373 202.471H175.443C174.251 202.471 173.285 203.437 173.285 204.629C173.285 205.82 174.251 206.786 175.443 206.786H179.373C180.565 206.786 181.531 205.82 181.531 204.629C181.531 203.437 180.565 202.471 179.373 202.471Z" fill="#E6E6E6"/>
<path d="M192.108 202.471H188.178C186.987 202.471 186.021 203.437 186.021 204.629C186.021 205.82 186.987 206.786 188.178 206.786H192.108C193.3 206.786 194.266 205.82 194.266 204.629C194.266 203.437 193.3 202.471 192.108 202.471Z" fill="#E6E6E6"/>
<path d="M167.147 202.111H142.721C141.529 202.111 140.563 203.077 140.563 204.269C140.563 205.46 141.529 206.426 142.721 206.426H167.147C168.339 206.426 169.305 205.46 169.305 204.269C169.305 203.077 168.339 202.111 167.147 202.111Z" fill="#E6E6E6"/>
<path d="M227.078 202.111H202.652C201.46 202.111 200.494 203.077 200.494 204.269C200.494 205.46 201.46 206.426 202.652 206.426H227.078C228.269 206.426 229.235 205.46 229.235 204.269C229.235 203.077 228.269 202.111 227.078 202.111Z" fill="#E6E6E6"/>
<path d="M146.411 212.21H142.481C141.289 212.21 140.324 213.176 140.324 214.367C140.324 215.559 141.289 216.525 142.481 216.525H146.411C147.603 216.525 148.569 215.559 148.569 214.367C148.569 213.176 147.603 212.21 146.411 212.21Z" fill="#E6E6E6"/>
<path d="M191.359 212.21H187.429C186.238 212.21 185.272 213.176 185.272 214.367C185.272 215.559 186.238 216.525 187.429 216.525H191.359C192.551 216.525 193.517 215.559 193.517 214.367C193.517 213.176 192.551 212.21 191.359 212.21Z" fill="#E6E6E6"/>
<path d="M204.095 212.21H200.164C198.973 212.21 198.007 213.176 198.007 214.367C198.007 215.559 198.973 216.525 200.164 216.525H204.095C205.286 216.525 206.252 215.559 206.252 214.367C206.252 213.176 205.286 212.21 204.095 212.21Z" fill="#E6E6E6"/>
<path d="M179.133 211.85H154.707C153.516 211.85 152.55 212.816 152.55 214.008C152.55 215.199 153.516 216.165 154.707 216.165H179.133C180.325 216.165 181.291 215.199 181.291 214.008C181.291 212.816 180.325 211.85 179.133 211.85Z" fill="#E6E6E6"/>
<path d="M239.064 211.85H214.638C213.446 211.85 212.48 212.816 212.48 214.008C212.48 215.199 213.446 216.165 214.638 216.165H239.064C240.256 216.165 241.221 215.199 241.221 214.008C241.221 212.816 240.256 211.85 239.064 211.85Z" fill="#E6E6E6"/>
<path d="M158.397 221.949H154.467C153.276 221.949 152.31 222.915 152.31 224.106C152.31 225.298 153.276 226.264 154.467 226.264H158.397C159.589 226.264 160.555 225.298 160.555 224.106C160.555 222.915 159.589 221.949 158.397 221.949Z" fill="#E6E6E6"/>
<path d="M203.345 221.949H199.415C198.224 221.949 197.258 222.915 197.258 224.106C197.258 225.298 198.224 226.264 199.415 226.264H203.345C204.537 226.264 205.503 225.298 205.503 224.106C205.503 222.915 204.537 221.949 203.345 221.949Z" fill="#E6E6E6"/>
<path d="M216.081 221.949H212.151C210.959 221.949 209.993 222.915 209.993 224.106C209.993 225.298 210.959 226.264 212.151 226.264H216.081C217.272 226.264 218.238 225.298 218.238 224.106C218.238 222.915 217.272 221.949 216.081 221.949Z" fill="#E6E6E6"/>
<path d="M191.119 221.589H166.693C165.502 221.589 164.536 222.555 164.536 223.746C164.536 224.938 165.502 225.904 166.693 225.904H191.119C192.311 225.904 193.277 224.938 193.277 223.746C193.277 222.555 192.311 221.589 191.119 221.589Z" fill="#E6E6E6"/>
<path d="M251.05 221.589H226.624C225.432 221.589 224.467 222.555 224.467 223.746C224.467 224.938 225.432 225.904 226.624 225.904H251.05C252.242 225.904 253.208 224.938 253.208 223.746C253.208 222.555 252.242 221.589 251.05 221.589Z" fill="#E6E6E6"/>
<path d="M170.383 231.687H166.453C165.262 231.687 164.296 232.653 164.296 233.845C164.296 235.036 165.262 236.002 166.453 236.002H170.383C171.575 236.002 172.541 235.036 172.541 233.845C172.541 232.653 171.575 231.687 170.383 231.687Z" fill="#E6E6E6"/>
<path d="M215.332 231.687H211.401C210.21 231.687 209.244 232.653 209.244 233.845C209.244 235.036 210.21 236.002 211.401 236.002H215.332C216.523 236.002 217.489 235.036 217.489 233.845C217.489 232.653 216.523 231.687 215.332 231.687Z" fill="#E6E6E6"/>
<path d="M228.067 231.687H224.137C222.945 231.687 221.979 232.653 221.979 233.845C221.979 235.036 222.945 236.002 224.137 236.002H228.067C229.258 236.002 230.224 235.036 230.224 233.845C230.224 232.653 229.258 231.687 228.067 231.687Z" fill="#E6E6E6"/>
<path d="M203.105 231.328H178.679C177.488 231.328 176.522 232.294 176.522 233.485C176.522 234.677 177.488 235.643 178.679 235.643H203.105C204.297 235.643 205.263 234.677 205.263 233.485C205.263 232.294 204.297 231.328 203.105 231.328Z" fill="#E6E6E6"/>
<path d="M179.373 270.413H175.443C174.251 270.413 173.285 271.379 173.285 272.57C173.285 273.762 174.251 274.728 175.443 274.728H179.373C180.565 274.728 181.531 273.762 181.531 272.57C181.531 271.379 180.565 270.413 179.373 270.413Z" fill="#E6E6E6"/>
<path d="M192.108 270.413H188.178C186.987 270.413 186.021 271.379 186.021 272.57C186.021 273.762 186.987 274.728 188.178 274.728H192.108C193.3 274.728 194.266 273.762 194.266 272.57C194.266 271.379 193.3 270.413 192.108 270.413Z" fill="#E6E6E6"/>
<path d="M227.078 270.773H202.652C201.46 270.773 200.494 271.738 200.494 272.93C200.494 274.122 201.46 275.087 202.652 275.087H227.078C228.269 275.087 229.235 274.122 229.235 272.93C229.235 271.738 228.269 270.773 227.078 270.773Z" fill="#E6E6E6"/>
<path d="M134.425 270.413H130.495C129.303 270.413 128.337 271.379 128.337 272.57C128.337 273.762 129.303 274.728 130.495 274.728H134.425C135.616 274.728 136.582 273.762 136.582 272.57C136.582 271.379 135.616 270.413 134.425 270.413Z" fill="#E6E6E6"/>
<path d="M167.147 270.773H142.721C141.529 270.773 140.563 271.738 140.563 272.93C140.563 274.122 141.529 275.087 142.721 275.087H167.147C168.339 275.087 169.305 274.122 169.305 272.93C169.305 271.738 168.339 270.773 167.147 270.773Z" fill="#E6E6E6"/>
<path d="M146.411 260.674H142.481C141.289 260.674 140.324 261.64 140.324 262.832C140.324 264.023 141.289 264.989 142.481 264.989H146.411C147.603 264.989 148.569 264.023 148.569 262.832C148.569 261.64 147.603 260.674 146.411 260.674Z" fill="#E6E6E6"/>
<path d="M191.359 260.674H187.429C186.238 260.674 185.272 261.64 185.272 262.832C185.272 264.023 186.238 264.989 187.429 264.989H191.359C192.551 264.989 193.517 264.023 193.517 262.832C193.517 261.64 192.551 260.674 191.359 260.674Z" fill="#E6E6E6"/>
<path d="M204.095 260.674H200.164C198.973 260.674 198.007 261.64 198.007 262.832C198.007 264.023 198.973 264.989 200.164 264.989H204.095C205.286 264.989 206.252 264.023 206.252 262.832C206.252 261.64 205.286 260.674 204.095 260.674Z" fill="#E6E6E6"/>
<path d="M179.133 261.034H154.707C153.516 261.034 152.55 262 152.55 263.191C152.55 264.383 153.516 265.349 154.707 265.349H179.133C180.325 265.349 181.291 264.383 181.291 263.191C181.291 262 180.325 261.034 179.133 261.034Z" fill="#E6E6E6"/>
<path d="M158.397 250.935H154.467C153.276 250.935 152.31 251.901 152.31 253.093C152.31 254.284 153.276 255.25 154.467 255.25H158.397C159.589 255.25 160.555 254.284 160.555 253.093C160.555 251.901 159.589 250.935 158.397 250.935Z" fill="#E6E6E6"/>
<path d="M203.345 250.935H199.415C198.224 250.935 197.258 251.901 197.258 253.093C197.258 254.284 198.224 255.25 199.415 255.25H203.345C204.537 255.25 205.503 254.284 205.503 253.093C205.503 251.901 204.537 250.935 203.345 250.935Z" fill="#E6E6E6"/>
<path d="M216.081 250.935H212.151C210.959 250.935 209.993 251.901 209.993 253.093C209.993 254.284 210.959 255.25 212.151 255.25H216.081C217.272 255.25 218.238 254.284 218.238 253.093C218.238 251.901 217.272 250.935 216.081 250.935Z" fill="#E6E6E6"/>
<path d="M191.119 251.295H166.693C165.502 251.295 164.536 252.261 164.536 253.453C164.536 254.644 165.502 255.61 166.693 255.61H191.119C192.311 255.61 193.277 254.644 193.277 253.453C193.277 252.261 192.311 251.295 191.119 251.295Z" fill="#E6E6E6"/>
<path d="M170.383 241.197H166.453C165.262 241.197 164.296 242.163 164.296 243.354C164.296 244.546 165.262 245.512 166.453 245.512H170.383C171.575 245.512 172.541 244.546 172.541 243.354C172.541 242.163 171.575 241.197 170.383 241.197Z" fill="#E6E6E6"/>
<path d="M215.332 241.197H211.401C210.21 241.197 209.244 242.163 209.244 243.354C209.244 244.546 210.21 245.512 211.401 245.512H215.332C216.523 245.512 217.489 244.546 217.489 243.354C217.489 242.163 216.523 241.197 215.332 241.197Z" fill="#E6E6E6"/>
<path d="M228.067 241.197H224.137C222.945 241.197 221.979 242.163 221.979 243.354C221.979 244.546 222.945 245.512 224.137 245.512H228.067C229.258 245.512 230.224 244.546 230.224 243.354C230.224 242.163 229.258 241.197 228.067 241.197Z" fill="#E6E6E6"/>
<path d="M203.105 241.556H178.679C177.488 241.556 176.522 242.522 176.522 243.714C176.522 244.905 177.488 245.871 178.679 245.871H203.105C204.297 245.871 205.263 244.905 205.263 243.714C205.263 242.522 204.297 241.556 203.105 241.556Z" fill="#E6E6E6"/>
<path d="M311.498 411.103C311.041 411.335 310.576 411.567 310.119 411.792C298.283 417.71 288.814 421.074 275.861 424.76C274.768 412.549 273.711 391.086 272.685 377.781C272.415 374.328 272.146 371.429 271.884 369.383C271.817 368.296 271.595 367.224 271.224 366.2L271.269 369.383L271.382 377.781L272.033 425.808C255.921 430.071 239.37 432.457 222.71 432.918C221.841 432.94 220.987 432.955 220.163 432.97C219.871 432.978 219.586 432.985 219.302 432.985C218.365 432.992 217.436 433 216.5 433C198.943 433.013 181.45 430.892 164.405 426.685C164.772 414.601 165.139 393.378 165.491 377.781C165.566 374.732 165.634 371.893 165.709 369.383C165.851 364.02 166.001 360.154 166.143 358.858C166.017 359.088 165.919 359.332 165.851 359.585C165.157 362.815 164.684 366.089 164.435 369.383C164.173 371.893 163.911 374.732 163.649 377.781C162.255 393.985 160.802 416.017 159.304 425.359C150.386 422.924 141.635 419.914 133.106 416.347C128.611 414.474 124.197 412.454 119.862 410.286C120.686 404.892 121.547 398.847 122.431 392.577C123.12 387.715 123.832 382.718 124.559 377.781C125.682 370.155 126.836 362.679 128.005 356.094C129.713 346.475 131.466 338.744 133.204 335.193C134.852 331.822 136.5 328.496 138.096 325.312C138.65 324.196 139.204 323.094 139.744 322.023C139.871 321.768 139.998 321.521 140.126 321.274C141.272 319.019 142.381 316.862 143.437 314.839C144.343 313.108 145.205 311.475 146.021 309.97C147.999 306.314 149.677 303.4 150.921 301.557C156.12 293.67 163.86 287.8 172.855 284.919L173.08 284.859L173.237 284.926L188.557 280.221L190.797 279.532L192.303 279.068L197.607 275.03L200.491 272.835L203.195 270.775L208.484 266.752L241.229 268.767L247.604 284.117L261.883 289.338L262.13 289.226L262.347 289.136L262.572 289.196C271.566 292.08 279.305 297.95 284.506 305.834C285.211 306.891 286.065 308.284 287.031 309.97C287.855 311.4 288.754 313.034 289.728 314.839C291.114 317.409 292.627 320.308 294.23 323.447C294.582 324.136 294.942 324.84 295.302 325.552C295.968 326.87 296.645 328.216 297.332 329.589C298.927 332.773 300.575 336.099 302.224 339.478C303.654 342.407 305.1 348.43 306.524 356.094C307.7 362.461 308.868 369.968 310 377.781C311.483 387.91 309.902 400.038 311.243 409.357C311.325 409.949 311.415 410.526 311.498 411.103Z" fill="#3F3D56"/>
<path d="M216.961 254.5C237.994 254.5 255.044 237.449 255.044 216.416C255.044 195.383 237.994 178.333 216.961 178.333C195.928 178.333 178.877 195.383 178.877 216.416C178.877 237.449 195.928 254.5 216.961 254.5Z" fill="#A0616A"/>
<path opacity="0.2" d="M154.562 356.061L160.927 331.495L166.548 352.693L154.562 356.061Z" fill="black"/>
<path d="M323.948 340.055C321.671 371.429 324.031 385.243 311.46 411.11C300.023 416.708 288.11 421.276 275.861 424.76C274.588 425.119 273.312 425.469 272.033 425.808C255.921 430.071 239.37 432.457 222.71 432.918C221.841 432.94 220.987 432.955 220.163 432.97C219.871 432.978 219.586 432.985 219.302 432.985C218.365 432.992 217.436 433 216.5 433C198.943 433.013 181.45 430.892 164.405 426.685C162.697 426.265 160.997 425.823 159.304 425.359C150.386 422.924 141.635 419.914 133.106 416.347C128.611 414.474 124.197 412.454 119.862 410.286C118.88 409.792 117.899 409.297 116.932 408.788C111.966 400.053 109.141 389.43 109.082 376.665C112.52 354.67 316.352 321.087 323.948 340.055Z" fill="#2F2E41"/>
<path opacity="0.2" d="M323.943 345.428C324.059 343.485 324.189 341.479 324.341 339.39C316.744 320.422 112.912 354.005 109.474 376C109.483 378.017 109.569 379.974 109.714 381.884C118.041 360.175 311.685 328.256 323.943 345.428Z" fill="black"/>
<path d="M122.181 256.318C122.23 255.639 122.134 254.957 121.898 254.318C121.662 253.679 121.292 253.098 120.812 252.614C120.333 252.131 119.756 251.755 119.119 251.513C118.482 251.271 117.801 251.169 117.122 251.212C116.869 251.221 116.617 251.253 116.369 251.306L86.5817 258.035C85.9161 258.197 85.2917 258.496 84.7487 258.913C84.2056 259.331 83.756 259.857 83.4288 260.459C82.992 260.475 82.5582 260.538 82.1348 260.647C81.2078 260.857 80.3314 261.248 79.5554 261.796C78.7794 262.345 78.1191 263.042 77.6122 263.846C77.1053 264.65 76.7618 265.546 76.6012 266.482C76.4405 267.419 76.466 268.378 76.6761 269.305C76.8862 270.232 77.2769 271.109 77.8257 271.885C78.3745 272.661 79.0708 273.321 79.8749 273.828C81.4986 274.852 83.4626 275.188 85.3346 274.764C86.4002 274.517 87.397 274.035 88.2522 273.352L98.346 301.775C98.8502 302.666 99.6292 303.369 100.566 303.781C101.504 304.192 102.549 304.289 103.546 304.057L122.91 299.681C123.899 299.449 124.79 298.91 125.453 298.141C126.117 297.371 126.52 296.411 126.604 295.399L122.181 256.318ZM84.8876 272.741C83.5506 273.042 82.1486 272.801 80.9889 272.071C79.8293 271.34 79.0067 270.18 78.7014 268.844C78.3962 267.507 78.6333 266.105 79.3607 264.943C80.0881 263.781 81.2465 262.956 82.5818 262.647C82.6759 262.623 82.7701 262.647 82.8642 262.623C82.8571 263.481 83.0762 264.325 83.4995 265.07L87.1934 271.517C86.5503 272.127 85.7531 272.55 84.8876 272.741Z" fill="#2F2E41"/>
<path d="M117.122 251.212C117.404 254.977 110.957 259.306 102.322 261.023C94.3931 262.647 87.2876 261.517 85.2875 258.553C85.6895 258.314 86.1261 258.14 86.5817 258.035L116.369 251.306C116.617 251.253 116.869 251.222 117.122 251.212V251.212Z" fill="#3F3D56"/>
<path d="M96.521 346.778L113.252 338.413L99.3095 300.768L95.6351 281.784C95.1577 279.317 94.0413 277.019 92.3976 275.12C90.7539 273.22 88.6403 271.785 86.2682 270.957C83.896 270.13 81.3483 269.94 78.8797 270.406C76.411 270.872 74.1079 271.978 72.2005 273.613V273.613C69.3739 276.036 67.5992 279.462 67.2508 283.168C66.9024 286.875 68.0076 290.572 70.3332 293.479L83.9729 310.528L96.521 346.778Z" fill="#A0616A"/>
<path d="M113.252 331.442L90.9441 342.596L107.873 395.641C109.089 399.45 111.268 402.881 114.2 405.6C117.132 408.319 120.716 410.235 124.606 411.161V411.161C129.402 412.303 134.437 411.887 138.982 409.975C143.526 408.063 147.343 404.753 149.88 400.525L194.772 323.579C197.953 318.276 198.935 311.94 197.508 305.924C196.081 299.908 192.358 294.688 187.134 291.379V291.379C184.324 289.6 181.171 288.432 177.881 287.952C174.59 287.471 171.235 287.689 168.034 288.591C164.833 289.494 161.858 291.059 159.302 293.187C156.747 295.315 154.668 297.957 153.201 300.942L125.8 359.327L113.252 331.442Z" fill="#3F3D56"/>
<path d="M106.352 283.504C106.311 283.504 106.27 283.497 106.23 283.483L101.36 281.806C101.301 281.786 101.248 281.752 101.206 281.706C101.164 281.66 101.134 281.605 101.119 281.545C101.103 281.484 101.103 281.421 101.119 281.361C101.134 281.301 101.164 281.245 101.206 281.199L104.828 277.255C104.862 277.219 104.902 277.189 104.946 277.168C104.991 277.147 105.039 277.135 105.088 277.133C105.138 277.131 105.187 277.139 105.233 277.155C105.28 277.172 105.322 277.198 105.358 277.231C105.395 277.265 105.424 277.305 105.445 277.35C105.466 277.394 105.477 277.443 105.479 277.492C105.481 277.541 105.474 277.59 105.457 277.637C105.44 277.683 105.414 277.725 105.38 277.762L102.145 281.284L106.474 282.775C106.558 282.804 106.629 282.861 106.674 282.938C106.719 283.014 106.736 283.104 106.722 283.191C106.707 283.278 106.662 283.358 106.594 283.415C106.527 283.472 106.441 283.504 106.352 283.504V283.504Z" fill="#655DBB"/>
<path d="M113.028 282.137C112.954 282.137 112.881 282.115 112.819 282.073C112.757 282.031 112.709 281.972 112.681 281.903C112.653 281.834 112.646 281.758 112.662 281.685C112.677 281.612 112.714 281.545 112.768 281.493L116.06 278.31L111.638 276.488C111.592 276.469 111.551 276.442 111.516 276.407C111.481 276.372 111.453 276.331 111.434 276.286C111.415 276.24 111.405 276.192 111.405 276.142C111.405 276.093 111.415 276.044 111.433 275.999C111.452 275.953 111.48 275.912 111.515 275.877C111.549 275.842 111.591 275.815 111.636 275.796C111.682 275.777 111.73 275.767 111.779 275.767C111.829 275.767 111.877 275.777 111.923 275.796L116.874 277.836C116.932 277.86 116.982 277.897 117.022 277.946C117.061 277.994 117.088 278.051 117.1 278.112C117.111 278.173 117.108 278.236 117.089 278.295C117.07 278.355 117.037 278.408 116.992 278.451L113.289 282.032C113.219 282.099 113.126 282.137 113.028 282.137V282.137Z" fill="#655DBB"/>
<path d="M107.375 285.795C107.337 285.795 107.3 285.789 107.265 285.778C107.218 285.764 107.174 285.74 107.136 285.709C107.098 285.677 107.067 285.639 107.043 285.595C107.02 285.552 107.006 285.504 107.002 285.455C106.997 285.406 107.002 285.357 107.017 285.31L110.474 274.073C110.503 273.978 110.569 273.899 110.657 273.853C110.745 273.807 110.847 273.797 110.942 273.827C111.037 273.856 111.116 273.921 111.162 274.009C111.209 274.097 111.219 274.199 111.19 274.294L107.733 285.531C107.709 285.607 107.662 285.674 107.597 285.722C107.533 285.769 107.455 285.795 107.375 285.795V285.795Z" fill="#655DBB"/>
<circle cx="244.986" cy="207.323" r="46" transform="rotate(-35.046 244.986 207.323)" fill="#2F2E41"/>
<circle cx="198.652" cy="201.346" r="24.5" transform="rotate(-35.046 198.652 201.346)" fill="#2F2E41"/>
<circle cx="209.687" cy="175.284" r="24.5" transform="rotate(-35.046 209.687 175.284)" fill="#2F2E41"/>
<circle cx="230.155" cy="160.928" r="24.5" transform="rotate(-35.046 230.155 160.928)" fill="#2F2E41"/>
<circle cx="249.815" cy="159.353" r="24.5" transform="rotate(-35.046 249.815 159.353)" fill="#2F2E41"/>
<circle cx="264.978" cy="167.039" r="24.5" transform="rotate(-35.046 264.978 167.039)" fill="#2F2E41"/>
<circle cx="284.246" cy="184.061" r="24.5" transform="rotate(-35.046 284.246 184.061)" fill="#2F2E41"/>
<circle cx="288.851" cy="202.817" r="24.5" transform="rotate(-35.046 288.851 202.817)" fill="#2F2E41"/>
<circle cx="281.824" cy="222.404" r="24.5" transform="rotate(-35.046 281.824 222.404)" fill="#2F2E41"/>
<circle cx="261.357" cy="236.759" r="24.5" transform="rotate(-35.046 261.357 236.759)" fill="#2F2E41"/>
<circle cx="241.293" cy="244.725" r="24.5" transform="rotate(-35.046 241.293 244.725)" fill="#2F2E41"/>
<circle cx="213.264" cy="232.627" r="24.5" transform="rotate(-35.046 213.264 232.627)" fill="#2F2E41"/>
</svg>
