<svg width="22" height="22" viewBox="0 0 22 22" fill="none" xmlns="http://www.w3.org/2000/svg">
<path d="M9.82267 18.3179L8.07541 17.8109C7.89209 17.7594 7.78897 17.5675 7.84053 17.3841L11.7504 3.91592C11.8019 3.7326 11.9939 3.62948 12.1772 3.68104L13.9244 4.18803C14.1077 4.23959 14.2109 4.4315 14.1593 4.61482L10.2495 18.083C10.195 18.2664 10.006 18.3723 9.82267 18.3179V18.3179ZM6.5573 15.1041L7.80329 13.775C7.93505 13.6347 7.92646 13.4113 7.78038 13.2824L5.18527 10.9995L7.78038 8.71659C7.92646 8.58769 7.93792 8.36427 7.80329 8.22392L6.5573 6.89485C6.4284 6.75736 6.21071 6.74877 6.07036 6.88053L1.94281 10.7474C1.79673 10.882 1.79673 11.1141 1.94281 11.2487L6.07036 15.1184C6.21071 15.2502 6.4284 15.2445 6.5573 15.1041V15.1041ZM15.9295 15.1213L20.057 11.2515C20.2031 11.1169 20.2031 10.8849 20.057 10.7503L15.9295 6.87767C15.792 6.74877 15.5743 6.7545 15.4425 6.89199L14.1965 8.22105C14.0648 8.36141 14.0734 8.58483 14.2195 8.71372L16.8146 10.9995L14.2195 13.2824C14.0734 13.4113 14.0619 13.6347 14.1965 13.775L15.4425 15.1041C15.5714 15.2445 15.7891 15.2502 15.9295 15.1213V15.1213Z" fill="#0897E9"/>
</svg>
