<svg width="22" height="22" viewBox="0 0 22 22" fill="none" xmlns="http://www.w3.org/2000/svg">
<path d="M1.83325 16.346V17.875C1.83325 19.139 4.91268 20.1666 8.70825 20.1666C12.5038 20.1666 15.5833 19.139 15.5833 17.875V16.346C14.1044 17.388 11.401 17.875 8.70825 17.875C6.01554 17.875 3.31209 17.388 1.83325 16.346ZM13.2916 6.41665C17.0872 6.41665 20.1666 5.38898 20.1666 4.12498C20.1666 2.86098 17.0872 1.83331 13.2916 1.83331C9.49601 1.83331 6.41658 2.86098 6.41658 4.12498C6.41658 5.38898 9.49601 6.41665 13.2916 6.41665ZM1.83325 12.5898V14.4375C1.83325 15.7015 4.91268 16.7291 8.70825 16.7291C12.5038 16.7291 15.5833 15.7015 15.5833 14.4375V12.5898C14.1044 13.8073 11.3974 14.4375 8.70825 14.4375C6.01912 14.4375 3.31209 13.8073 1.83325 12.5898ZM16.7291 12.9837C18.7808 12.5862 20.1666 11.8486 20.1666 11V9.47101C19.3359 10.0582 18.1148 10.4593 16.7291 10.7064V12.9837ZM8.70825 7.56248C4.91268 7.56248 1.83325 8.84438 1.83325 10.4271C1.83325 12.0097 4.91268 13.2916 8.70825 13.2916C12.5038 13.2916 15.5833 12.0097 15.5833 10.4271C15.5833 8.84438 12.5038 7.56248 8.70825 7.56248ZM16.5608 9.57843C18.7092 9.19171 20.1666 8.4326 20.1666 7.56248V6.03351C18.8954 6.93227 16.7112 7.41567 14.4124 7.53025C15.4687 8.0423 16.2457 8.7298 16.5608 9.57843Z" fill="#0897E9"/>
</svg>
