<svg width="24" height="24" viewBox="0 0 24 24" fill="none" xmlns="http://www.w3.org/2000/svg">
<path d="M20.4137 16.152C19.659 15.341 18.2469 14.1211 18.2469 10.125C18.2469 7.08984 16.1188 4.66016 13.2492 4.06406V3.25C13.2492 2.55977 12.6899 2 12 2C11.3102 2 10.7508 2.55977 10.7508 3.25V4.06406C7.88128 4.66016 5.75315 7.08984 5.75315 10.125C5.75315 14.1211 4.34104 15.341 3.58636 16.152C3.35198 16.4039 3.24807 16.7051 3.25003 17C3.25432 17.6406 3.75706 18.25 4.50393 18.25H19.4961C20.243 18.25 20.7461 17.6406 20.75 17C20.752 16.7051 20.6481 16.4035 20.4137 16.152ZM5.88792 16.375C6.71682 15.2824 7.62307 13.4715 7.62737 10.1477C7.62737 10.1398 7.62503 10.1328 7.62503 10.125C7.62503 7.70859 9.58362 5.75 12 5.75C14.4164 5.75 16.375 7.70859 16.375 10.125C16.375 10.1328 16.3727 10.1398 16.3727 10.1477C16.377 13.4719 17.2832 15.2828 18.1121 16.375H5.88792ZM12 22C13.3797 22 14.4989 20.8809 14.4989 19.5H9.5012C9.5012 20.8809 10.6203 22 12 22Z" fill="#0897E9"/>
</svg>
