<svg width="22" height="22" viewBox="0 0 22 22" fill="none" xmlns="http://www.w3.org/2000/svg">
<path d="M9.56763 1.83331H12.4322C12.9084 1.83331 13.2916 2.21645 13.2916 2.69269V8.70831H16.4319C17.0693 8.70831 17.3879 9.47817 16.9368 9.92934L11.4905 15.3792C11.2219 15.6478 10.7815 15.6478 10.5129 15.3792L5.05949 9.92934C4.60832 9.47817 4.927 8.70831 5.56437 8.70831H8.70825V2.69269C8.70825 2.21645 9.09139 1.83331 9.56763 1.83331ZM20.1666 15.2969V19.3073C20.1666 19.7835 19.7834 20.1666 19.3072 20.1666H2.69263C2.21639 20.1666 1.83325 19.7835 1.83325 19.3073V15.2969C1.83325 14.8206 2.21639 14.4375 2.69263 14.4375H7.94556L9.70011 16.192C10.4198 16.9118 11.58 16.9118 12.2997 16.192L14.0543 14.4375H19.3072C19.7834 14.4375 20.1666 14.8206 20.1666 15.2969ZM15.7265 18.4479C15.7265 18.054 15.4042 17.7317 15.0103 17.7317C14.6165 17.7317 14.2942 18.054 14.2942 18.4479C14.2942 18.8418 14.6165 19.164 15.0103 19.164C15.4042 19.164 15.7265 18.8418 15.7265 18.4479ZM18.0181 18.4479C18.0181 18.054 17.6959 17.7317 17.302 17.7317C16.9081 17.7317 16.5859 18.054 16.5859 18.4479C16.5859 18.8418 16.9081 19.164 17.302 19.164C17.6959 19.164 18.0181 18.8418 18.0181 18.4479Z" fill="#0897E9"/>
</svg>
