<svg width="14" height="14" viewBox="0 0 14 14" fill="none" xmlns="http://www.w3.org/2000/svg">
<path d="M6.56115 0.526915L1.14343 2.55856C0.656354 2.74089 0.333374 3.20973 0.333374 3.73067V9.59379C0.333374 10.0678 0.601656 10.5002 1.02361 10.7112L6.44134 13.4201C6.79297 13.5972 7.20711 13.5972 7.55874 13.4201L12.9765 10.7112C13.401 10.5002 13.6667 10.0652 13.6667 9.59379V3.73067C13.6667 3.20973 13.3437 2.74349 12.8567 2.56117L7.43893 0.529519C7.15762 0.420123 6.84506 0.420123 6.56115 0.526915ZM7.00134 2.14442L12.0023 4.01978V4.04844L7.00134 6.08008L2.00037 4.04844V4.01978L7.00134 2.14442ZM7.83484 11.4171V7.5387L12.0023 5.84566V9.33332L7.83484 11.4171Z" fill="#0897E9"/>
</svg>
