<svg width="23" height="22" viewBox="0 0 23 22" fill="none" xmlns="http://www.w3.org/2000/svg">
<path d="M3.47909 17.875C3.47909 18.5088 3.99113 19.0209 4.62492 19.0209H18.3749C19.0087 19.0209 19.5208 18.5088 19.5208 17.875V7.56252H3.47909V17.875ZM9.20825 10.2839C9.20825 10.0475 9.40161 9.85419 9.63794 9.85419H13.3619C13.5982 9.85419 13.7916 10.0475 13.7916 10.2839V10.5703C13.7916 10.8067 13.5982 11 13.3619 11H9.63794C9.40161 11 9.20825 10.8067 9.20825 10.5703V10.2839ZM19.5208 2.97919H3.47909C2.8453 2.97919 2.33325 3.49123 2.33325 4.12502V5.84377C2.33325 6.15887 2.59106 6.41669 2.90617 6.41669H20.0937C20.4088 6.41669 20.6666 6.15887 20.6666 5.84377V4.12502C20.6666 3.49123 20.1545 2.97919 19.5208 2.97919Z" fill="#0897E9"/>
</svg>
