<svg width="10" height="14" viewBox="0 0 10 14" fill="none" xmlns="http://www.w3.org/2000/svg">
<path d="M7.5 7.00004H2.5V8.66671H7.5V7.00004ZM9.81771 3.06775L7.26823 0.515666C7.15104 0.398478 6.99219 0.333374 6.82552 0.333374H6.66667V3.66671H10V3.50785C10 3.34379 9.9349 3.18494 9.81771 3.06775ZM5.83333 3.87504V0.333374H0.625C0.278646 0.333374 0 0.61202 0 0.958374V13.0417C0 13.3881 0.278646 13.6667 0.625 13.6667H9.375C9.72135 13.6667 10 13.3881 10 13.0417V4.50004H6.45833C6.11458 4.50004 5.83333 4.21879 5.83333 3.87504ZM1.66667 2.20837C1.66667 2.09327 1.7599 2.00004 1.875 2.00004H3.95833C4.07344 2.00004 4.16667 2.09327 4.16667 2.20837V2.62504C4.16667 2.74014 4.07344 2.83337 3.95833 2.83337H1.875C1.7599 2.83337 1.66667 2.74014 1.66667 2.62504V2.20837ZM1.66667 3.87504C1.66667 3.75994 1.7599 3.66671 1.875 3.66671H3.95833C4.07344 3.66671 4.16667 3.75994 4.16667 3.87504V4.29171C4.16667 4.40681 4.07344 4.50004 3.95833 4.50004H1.875C1.7599 4.50004 1.66667 4.40681 1.66667 4.29171V3.87504ZM8.33333 11.7917C8.33333 11.9068 8.2401 12 8.125 12H6.04167C5.92656 12 5.83333 11.9068 5.83333 11.7917V11.375C5.83333 11.2599 5.92656 11.1667 6.04167 11.1667H8.125C8.2401 11.1667 8.33333 11.2599 8.33333 11.375V11.7917ZM8.33333 6.58337V9.08337C8.33333 9.31358 8.14687 9.50004 7.91667 9.50004H2.08333C1.85312 9.50004 1.66667 9.31358 1.66667 9.08337V6.58337C1.66667 6.35317 1.85312 6.16671 2.08333 6.16671H7.91667C8.14687 6.16671 8.33333 6.35317 8.33333 6.58337Z" fill="#0897E9"/>
</svg>
