<svg width="27" height="27" viewBox="0 0 27 27" fill="none" xmlns="http://www.w3.org/2000/svg">
<path d="M3.11304 13.3217V4.72506C3.11304 3.60856 4.00167 2.70349 5.09789 2.70349H13.5384C14.0648 2.70349 14.5696 2.91648 14.9419 3.2956L23.7034 12.2192C24.4785 13.0087 24.4785 14.2887 23.7034 15.0781L15.2629 23.6747C14.4878 24.4642 13.2311 24.4642 12.4559 23.6747L3.69439 14.7511C3.32216 14.372 3.11304 13.8578 3.11304 13.3217H3.11304ZM7.74435 5.39891C6.64814 5.39891 5.7595 6.30398 5.7595 7.42048C5.7595 8.53697 6.64814 9.44204 7.74435 9.44204C8.84057 9.44204 9.7292 8.53697 9.7292 7.42048C9.7292 6.30398 8.84057 5.39891 7.74435 5.39891Z" fill="#0897E9"/>
</svg>
