<svg width="23" height="22" viewBox="0 0 23 22" fill="none" xmlns="http://www.w3.org/2000/svg">
<path d="M20.5137 5.73983C20.4335 5.41649 20.0289 5.30692 19.7933 5.54253L17.1307 8.20515L14.7001 7.80017L14.2951 5.36958L16.9577 2.70696C17.1948 2.46991 17.0805 2.06601 16.755 1.98508C15.0585 1.56471 13.1904 2.01767 11.8645 3.34325C10.4451 4.76265 10.0544 6.82013 10.6453 8.61407L3.00437 16.255C2.10955 17.1498 2.10955 18.6007 3.00437 19.4955C3.89919 20.3903 5.3501 20.3903 6.24492 19.4955L13.8794 11.8611C15.674 12.4594 17.7276 12.0645 19.1563 10.6357C20.4836 9.30837 20.9359 7.43744 20.5137 5.73983V5.73983ZM4.625 18.7343C4.15056 18.7343 3.76563 18.3493 3.76563 17.8749C3.76563 17.4001 4.15056 17.0155 4.625 17.0155C5.09945 17.0155 5.48437 17.4001 5.48437 17.8749C5.48437 18.3493 5.09945 18.7343 4.625 18.7343Z" fill="#0897E9"/>
</svg>
