<svg width="14" height="12" viewBox="0 0 14 12" fill="none" xmlns="http://www.w3.org/2000/svg">
<path d="M6.82327 3.50563L2.55577 7.02041V10.8139C2.55577 10.9121 2.59479 11.0063 2.66424 11.0757C2.7337 11.1452 2.82789 11.1842 2.92611 11.1842L5.5199 11.1775C5.6178 11.177 5.71152 11.1378 5.78057 11.0684C5.84962 10.999 5.88839 10.9051 5.88839 10.8072V8.59182C5.88839 8.4936 5.9274 8.3994 5.99686 8.32995C6.06631 8.26049 6.16051 8.22148 6.25873 8.22148H7.7401C7.83832 8.22148 7.93251 8.26049 8.00197 8.32995C8.07142 8.3994 8.11044 8.4936 8.11044 8.59182V10.8055C8.11029 10.8543 8.11975 10.9025 8.13829 10.9476C8.15684 10.9927 8.18409 11.0336 8.2185 11.0682C8.2529 11.1027 8.29378 11.13 8.33879 11.1487C8.38379 11.1674 8.43205 11.177 8.48078 11.177L11.0736 11.1842C11.1719 11.1842 11.2661 11.1452 11.3355 11.0757C11.405 11.0063 11.444 10.9121 11.444 10.8139V7.01786L7.17741 3.50563C7.12725 3.4652 7.06476 3.44316 7.00034 3.44316C6.93591 3.44316 6.87343 3.4652 6.82327 3.50563ZM13.5642 5.89457L11.6291 4.29955V1.09355C11.6291 1.01989 11.5999 0.949238 11.5478 0.897149C11.4957 0.845059 11.4251 0.815796 11.3514 0.815796H10.0552C9.98153 0.815796 9.91088 0.845059 9.85879 0.897149C9.8067 0.949238 9.77744 1.01989 9.77744 1.09355V2.77421L7.70514 1.06925C7.50627 0.905599 7.25673 0.816123 6.99918 0.816123C6.74163 0.816123 6.49209 0.905599 6.29322 1.06925L0.434176 5.89457C0.40605 5.91782 0.382781 5.94638 0.365697 5.97862C0.348613 6.01086 0.33805 6.04616 0.334611 6.08248C0.331171 6.11881 0.334924 6.15546 0.345653 6.19034C0.356382 6.22521 0.373879 6.25763 0.397142 6.28574L0.987374 7.00328C1.01057 7.03149 1.03911 7.05485 1.07135 7.07202C1.10359 7.08918 1.1389 7.09982 1.17525 7.10333C1.21161 7.10683 1.2483 7.10313 1.28322 7.09244C1.31815 7.08175 1.35062 7.06427 1.37878 7.04101L6.82327 2.55663C6.87343 2.5162 6.93591 2.49416 7.00034 2.49416C7.06476 2.49416 7.12725 2.5162 7.17741 2.55663L12.6221 7.04101C12.6502 7.06427 12.6827 7.08177 12.7175 7.0925C12.7524 7.10323 12.7891 7.10698 12.8254 7.10354C12.8617 7.1001 12.897 7.08954 12.9293 7.07246C12.9615 7.05537 12.9901 7.0321 13.0133 7.00398L13.6035 6.28644C13.6268 6.25816 13.6442 6.22558 13.6548 6.19055C13.6654 6.15552 13.669 6.11874 13.6653 6.08232C13.6617 6.04591 13.6508 6.01058 13.6335 5.97835C13.6161 5.94613 13.5926 5.91766 13.5642 5.89457Z" fill="#0897E9"/>
</svg>
