<svg width="23" height="22" viewBox="0 0 23 22" fill="none" xmlns="http://www.w3.org/2000/svg">
<path d="M19.7499 5.5H3.24992C2.74375 5.5 2.33325 5.91049 2.33325 6.41667V15.5833C2.33325 16.0895 2.74375 16.5 3.24992 16.5H19.7499C20.2561 16.5 20.6666 16.0895 20.6666 15.5833V6.41667C20.6666 5.91049 20.2561 5.5 19.7499 5.5ZM3.70825 15.125V13.2917C4.72088 13.2917 5.54159 14.1124 5.54159 15.125H3.70825ZM3.70825 8.70833V6.875H5.54159C5.54159 7.88763 4.72088 8.70833 3.70825 8.70833ZM11.4999 13.75C10.2341 13.75 9.20825 12.5185 9.20825 11C9.20825 9.4812 10.2343 8.25 11.4999 8.25C12.7655 8.25 13.7916 9.4812 13.7916 11C13.7916 12.5191 12.7652 13.75 11.4999 13.75ZM19.2916 15.125H17.4583C17.4583 14.1124 18.279 13.2917 19.2916 13.2917V15.125ZM19.2916 8.70833C18.279 8.70833 17.4583 7.88763 17.4583 6.875H19.2916V8.70833Z" fill="#0897E9"/>
</svg>
