<svg width="14" height="14" viewBox="0 0 14 14" fill="none" xmlns="http://www.w3.org/2000/svg">
<path d="M7.00004 0.333313C3.3184 0.333313 0.333374 3.31942 0.333374 6.99998C0.333374 10.6827 3.3184 13.6666 7.00004 13.6666C10.6817 13.6666 13.6667 10.6827 13.6667 6.99998C13.6667 3.31942 10.6817 0.333313 7.00004 0.333313ZM7.00004 12.3763C4.02875 12.3763 1.6237 9.97226 1.6237 6.99998C1.6237 4.02968 4.02886 1.62364 7.00004 1.62364C9.97023 1.62364 12.3764 4.02877 12.3764 6.99998C12.3764 9.97122 9.97233 12.3763 7.00004 12.3763ZM9.88294 5.51611C9.88294 7.31858 7.93614 7.34632 7.93614 8.01243V8.18278C7.93614 8.36092 7.79171 8.50536 7.61356 8.50536H6.38649C6.20835 8.50536 6.06391 8.36092 6.06391 8.18278V7.95001C6.06391 6.98912 6.79241 6.60501 7.34292 6.29635C7.81499 6.0317 8.10432 5.8517 8.10432 5.50122C8.10432 5.03761 7.51294 4.7299 7.03485 4.7299C6.41149 4.7299 6.12372 5.02498 5.71921 5.53552C5.61015 5.67315 5.41114 5.69872 5.2712 5.59261L4.52324 5.02546C4.38595 4.92138 4.3552 4.72799 4.45216 4.5856C5.0873 3.65296 5.89628 3.12901 7.15579 3.12901C8.47491 3.12901 9.88294 4.15869 9.88294 5.51611ZM8.12907 10.0107C8.12907 10.6333 7.62259 11.1398 7.00004 11.1398C6.37749 11.1398 5.87101 10.6333 5.87101 10.0107C5.87101 9.38818 6.37749 8.8817 7.00004 8.8817C7.62259 8.8817 8.12907 9.38818 8.12907 10.0107Z" fill="#0897E9"/>
</svg>
