<svg version="1.2" xmlns="http://www.w3.org/2000/svg" viewBox="0 0 962 200" width="346" height="72">
	<title>5588462-ai</title>
	<style>
		.s0 { fill: #455a64 } 
		.s1 { fill: #37474f } 
		.s2 { fill: #fafafa } 
		.s3 { opacity: .1;fill: #000000 } 
		.s4 { fill: #ba68c8 } 
		.s5 { opacity: .2;fill: #ffffff } 
		.s6 { fill: #ffffff } 
	</style>
	<g id="Yarns">
		<g id="Yarn">
			<path id="&lt;Path&gt;" class="s0" d="m187.2 95.1c4.8 28.7-13.3 55.9-40.4 60.7-27.1 4.9-53-14.5-57.8-43.1-4.1-24.2 8.6-44.3 28.9-52.9 3.8-1.7 7.9-2.9 12.2-3.6q3.3-0.6 6.5-0.8c24.6-1.5 46.2 13.4 50.6 39.7z"/>
			<g id="&lt;Group&gt;">
				<path id="&lt;Path&gt;" class="s1" d="m183 109.3c1.6-0.7 3.2-1.5 4.9-2.3q0.1-1.7 0.1-3.5-0.3 0.2-0.6 0.4c-6.1 3.9-13.4 4.9-20.3 3.4q-2.2-0.5-4.4-1.1c5.3-0.9 10.7-3.4 14.1-5.4 4.1-2.4 7.3-5.2 9.9-8.4q-0.6-2.5-1.3-4.8c-1.9 2.6-4.2 4.7-7.2 7-3.9 3-8.5 5.2-13.2 6.5-2.5 0.6-5 0.7-7.4 1.1-2.5 0.4-5.3 0.3-7.6-0.8-1.8-0.8-3.6-1.9-5.4-3 10.7-0.7 22.6-10.4 29.4-16.9 2-1.9 3.8-4 5.4-6.2q-1-1.6-2.2-3.1c-1.9 3-4.3 5.5-7 7.9-7.9 7.1-18.7 14.6-29.4 15.6-1.5-1.1-3-2.3-4.4-3.6 8-3 14.9-9.2 20.5-15.9 3.3-4 5.9-8.2 7.7-13.2q0.1-0.6 0.4-1.2-1.3-0.7-2.7-1.4c-1.9 5-4.9 9.8-8.2 13.9-2.1-6.1-3.6-11.5-3.5-18q-1.8-0.3-3.6-0.6-0.1 0.8-0.1 1.6c-0.1 7.3 1.8 13.5 4.5 20.1-2.5 2.6-5.4 4.8-8.3 6.9-1.7-1.4-3-4.9-4-6.8-1.5-2.8-3.2-5.5-4.3-8.5-1.5-4.2-2-8.7-2.6-13.2q-1.1 0.2-2.1 0.4-0.8 0.1-1.6 0.3c0.6 6.2 2.2 12.4 4.8 18.1 1.5 3.3 3.7 9 6.6 12.1-0.8 0.6-1.5 1-2.4 1.4-0.8 0.4-1.8 0.7-2.7 0.8-2.3 0.2-3.6-1.9-4.9-3.5q-2.4-2.7-4.4-5.7c-3.3-4.7-6.1-10.1-7.8-15.7-0.3-1.2-0.6-2.5-0.8-3.8q-2.1 1-4.1 2.1c0.2 1.4 0.4 2.9 0.8 4.4 2 6.6 5.5 12.8 9.4 18.4 5.9 8.5 15.3 16.6 24.4 21.3 11.5 5.7 25.6 9.4 39.4 9.3q0.7-3.2 1-6.4-2.4 0-4.8 0z"/>
				<path id="&lt;Compound Path&gt;" fill-rule="evenodd" class="s1" d="m183.3 126.6c-3.4 1.2-6.9 1.9-10.7 2.2-3.3 5.2-7.2 8.9-12.2 12.5-4.5 3.1-9.1 5.2-14.3 6.8-6.5 2.1-16.3 2.7-23.2-0.5q-0.2 3.1 0 6.3-2.4-0.8-4.6-1.8c-0.1-2.5 0.1-4.9 0.3-7.3 0.8-7.8 2.8-15 7-21.6 0.4-0.5 0.7-1 0.8-1.6 0.1-0.2 0.1-0.5 0-0.7-0.4-1.3-3.1-2.1-4.1-2.7-0.4-0.2-4.3-2.3-4.3-2.6-1.8 6.2-2.9 12.7-3.3 19.1-0.3 5.8 0.5 11.3 2 16.6q-2.7-1.4-5.3-3.2c-0.9-4.5-1.2-9.2-0.9-13.4 0.2-3.2 0.3-6.3 0.7-9.5 0.2-1.8 0.5-3.6 0.9-5.4 0.5-1.5 1.2-3.1 1.4-4.8 0.2-2.4-1.6-4-3.2-5.4q-3-2.7-5.8-5.7-0.2-0.2-0.3-0.4c-1.3 5.5-2.9 10.7-3.2 16.4-0.5 9.9 4.1 17.4 7.4 26-2.8-2.2-5.4-4.7-7.7-7.5-2.3-5.2-3.8-10.8-3.7-16.8 0-3.5 0.2-7 0.8-10.4 0.3-1.7 0.6-3.3 0.8-5 0.3-1.8 1-3.3 0.9-5.2-0.1-2.3-1.2-4.2-2.5-6-1.3-2-2.7-3.9-3.9-5.9q-0.8-1.4-1.6-2.9 0.8-2.1 1.9-4c1.7 2.9 4 5.7 5.7 8.3 3.1 4.6 6.4 9 10.4 12.8 9.7 9.3 20.4 14.7 33.2 17.8 7.9 1.9 16 3.3 24.1 3.2 6 0 12.4-1.5 18.5-3.5-4.9 0.5-9.8 0.4-14.4 0.3-11.9-0.2-22.8-3.5-33.6-8.3-10-4.5-17.9-12-25.3-20-4.8-5.1-10.2-12.4-12.3-20q1.2-1.3 2.5-2.6c6.6 18.1 23.3 33 40.1 40 13.7 5.6 29.4 8 44.4 6.3q-1.2 5.3-3.4 10.1zm-54.9 6.5c1.4 0.4 2.7 0.7 4.2 0.8 2.8 0 5.7-0.8 8.3-2 1.4-0.6 2.7-1.3 3.9-2.2q1-0.6 2-1.3c0.2-0.2 1.4-1.3 1.7-1.3-4-0.8-7.9-1.7-11.7-2.8q-2.8-0.8-5.5-1.8 0 0.2-0.1 0.3-1.7 2.5-3 5.2-0.7 1.3-1.2 2.7c-0.6 1.2 0.3 2 1.4 2.4zm40.2-4.4c-5 0.2-10.5-0.2-15.4-0.9-3.1 5.4-10.9 8.7-16.5 9.7-3.2 0.7-8.4 0.8-11.9-0.9-0.6 2.1-1 4.2-1.4 6.3 7.1 3.5 17.3 2.4 24.1 0.1 4.5-1.6 8.6-3.7 12.4-6.6 3-2.3 6.2-4.9 8.7-7.7z"/>
			</g>
		</g>
		<g id="Neddles">
			<g id="&lt;Group&gt;">
				<path id="&lt;Path&gt;" class="s2" d="m62 30.8l4.5-1 19 100.7c1.8 9.1 2.7 18.3 2.9 27.6-3.2-8.6-5.7-17.6-7.4-26.7z"/>
				<path id="&lt;Path&gt;" class="s3" d="m62.7 34.8c1.5 0.2 3.3-0.1 4.6-0.9l-0.8-4.1-4.5 1z"/>
				<path id="&lt;Path&gt;" class="s2" d="m61.5 32.8c-1.9-0.7-2.3-2.3-0.7-3.7 1.5-1.4 4.3-2 6.2-1.3 1.9 0.7 2.2 2.4 0.7 3.7-1.5 1.4-4.3 2-6.2 1.3z"/>
			</g>
			<g id="&lt;Group&gt;">
				<path id="&lt;Path&gt;" class="s2" d="m84.9 13.8l4.7-0.2 3.4 102.5c0.4 9.2-0.1 18.5-1.3 27.7-1.9-9.1-3-18.3-3.3-27.6z"/>
				<path id="&lt;Path&gt;" class="s3" d="m85.1 17.9c1.4 0.4 3.2 0.4 4.6-0.2l-0.1-4.1-4.7 0.2z"/>
				<path id="&lt;Path&gt;" class="s2" d="m84.1 15.7c-1.7-1-1.8-2.7-0.1-3.8 1.7-1.1 4.6-1.2 6.4-0.2 1.8 1 1.8 2.7 0.1 3.8-1.7 1.1-4.6 1.2-6.4 0.2z"/>
			</g>
		</g>
		<g id="Yarn 3 ">
			<path id="&lt;Path&gt;" class="s4" d="m119.6 141.1c0 23.1-18.1 41.7-40.4 41.7h-25c-22.3 0-40.4-18.6-40.4-41.7 0-23 18.1-41.7 40.4-41.7h25c22.3 0 40.4 18.7 40.4 41.7z"/>
			<path id="&lt;Path&gt;" class="s5" d="m119.6 141.1c0 23.1-18.1 41.7-40.4 41.7h-25c-22.3 0-40.4-18.6-40.4-41.7 0-23 18.1-41.7 40.4-41.7h25c22.3 0 40.4 18.7 40.4 41.7z"/>
			<g id="&lt;Group&gt;">
				<path id="&lt;Compound Path&gt;" fill-rule="evenodd" class="s4" d="m79.2 99.4q3.5 0 6.8 0.6c4.8 2.2 9.1 5 13.2 8.5 5.6 4.7 11.8 13.3 13.2 21.5q2.4-1.5 4.8-3.2 0.8 2.4 1.4 5c-2 1.4-4 2.6-6.1 3.8-7.2 3.8-14.6 6.3-22.7 6.3-0.6-0.1-1.2 0-1.8 0.2-0.3 0.1-0.5 0.2-0.7 0.4-0.8 1.1 0.1 4.1 0.2 5.4 0 0.5 0.5 5.3 0.3 5.4 6.3-2 12.6-4.8 18.3-8.3 5.1-3 9.2-6.9 12.9-11.3q0.5 3.2 0.6 6.5c-3.4 3.6-7.2 6.6-11 8.8-2.8 1.6-5.6 3.4-8.6 4.9-1.6 0.8-3.4 1.7-5.2 2.3-1.5 0.5-3.4 0.8-4.8 1.6-2.3 1.2-2.6 3.8-2.9 6.1q-0.5 4.4-1.4 8.7-0.1 0.2-0.1 0.5c5.4-2 10.8-3.7 15.9-6.8 8.8-5.4 12.6-13.9 18-22q-0.1 1.1-0.2 2.2c-0.5 3.9-1.5 7.6-3 11.1-2.9 4.4-6.5 8.4-11 11.4-3 2-6.1 3.9-9.4 5.4-1.6 0.7-3.2 1.4-4.8 2.1-1.7 0.8-3.4 1.2-5 2.3-1.3 1.1-2.2 2.4-2.9 3.8q-2 0.2-4 0.2h-0.9c1.7-4.7 3.1-9.4 3.9-14.5 2.3-14.3 0.7-27.3-4.3-40.8-3-8.3-6.5-16.6-11.4-24q-1.4-2.1-3.1-4.1zm17.5 34.1c-0.5-1.4-0.9-2.9-1.8-4.2-1.6-2.7-4-4.8-6.5-6.5-1.4-0.9-2.8-1.7-4.2-2.3q-1.2-0.6-2.3-1c-0.4-0.1-2-0.5-2.2-0.8 1.7 4.1 3.2 8.2 4.5 12.3q1 3 1.7 6.1 0.2-0.1 0.4-0.1 3.1 0.1 6.2-0.3 1.5-0.2 3-0.4c1.4-0.3 1.6-1.6 1.2-2.8zm-27.4-34.1c3 4.4 5.9 9.6 8.3 14.5 6.4-0.2 13.8 4.9 18.1 9.4 2.3 2.5 5.6 7.3 6.2 11.4 2.1-0.6 4.2-1.5 6.2-2.4-1.2-8.5-8.1-17.2-14.2-22.1-4-3.2-8.1-5.7-12.9-7.4-3.7-1.5-7.9-2.8-11.7-3.4z"/>
				<path id="&lt;Path&gt;" class="s4" d="m71.7 172.2c2.5-11.5 4.3-23.1 2.3-34.8-2.2-12.8-5.8-24.6-12.6-35.7q-0.7-1.1-1.5-2.3h-5.1c6.7 10.7 11.5 22.7 14 34.9 3 15.3 1.8 33.4-4.4 48.5h4.2c1.4-3.6 2.4-7.3 3.1-10.6z"/>
				<path id="&lt;Path&gt;" class="s4" d="m55 153.7c1.4 2 0.4 4.4-0.2 6.5q-0.9 3.8-2.3 7.4c-1.8 4.9-4.3 9.9-7.3 14.2q2.7 0.6 5.6 0.9c3.3-4.9 5.8-10.4 7.8-16 3.9-10.4 5.3-23.7 3.9-34.8-1.4-10.7-4.8-22-10-32.4q-4.8 0.2-9.3 1.5c3.8 3.3 6.7 7.6 8.5 12.4q0.9 2.2 1.6 4.6c-3.8-4.2-9.1-7.8-12.8-9.7-2.5-1.3-4.8-2.2-7.2-2.9q-2.5 1.6-4.8 3.5c1.9 0.4 3.7 1 5.8 1.7 4.8 1.9 9.5 4.8 13.3 8.4 2 1.8 3.6 4.1 5.3 6.1 1.8 2 3.4 4.6 3.8 7.3 0.4 2.1 0.5 4.4 0.6 6.7-6.8-9.3-22.2-14.5-31.8-16.9q-3.4-0.8-6.8-1.1-0.9 1.8-1.7 3.8c3.1 0.1 6.3 0.7 9.6 1.6 10.6 3.1 23.5 8.5 30.7 17.7-0.1 2-0.3 4.1-0.5 6.1-7.4-5.5-16.7-8.1-25.7-9.3-5.4-0.7-10.6-0.6-15.9 0.8q-0.6 0.1-1.3 0.3 0.1 1.6 0.3 3.2c5.5-1.2 11.4-1.2 16.8-0.7-4 5.5-7.8 10.1-13.3 13.9q0.7 1.8 1.6 3.6 0.6-0.4 1.3-0.9c6.4-4.1 10.6-9.6 14.6-15.9 3.8 0.7 7.3 2.1 10.8 3.5-0.1 2.4-2.4 5.7-3.4 7.7-1.5 3-2.8 6.1-4.8 8.9-2.3 3.3-5.3 6.1-8.2 8.8q1.6 1.3 3.3 2.4c4.2-3.8 7.8-8.2 10.7-13.1 1.9-3.3 5.4-8.7 6.5-13.2 0.9 0.4 1.7 0.8 2.5 1.4 0.9 0.6 1.7 1.2 2.4 2z"/>
			</g>
		</g>
		<path id="Lojinha da Maria" fill-rule="evenodd" class="s6" d="m184.6 153.2q-6.7-6.5-15.2-10.3-8.4-3.8-17.7-6.2-9.2-2.3-18.2-4.1-5.5 7.9-11.8 14.3-6.2 6.3-13.3 9.7-3.9 2-7.6 3-3.7 0.9-6.9 0.9-7.9 0-13-4.3-4.9-4.4-4.9-10.3 0-5.6 4.8-11 4.9-5.4 16.2-9 4.5-1.3 10-1.9 5.5-0.7 11.4-0.7 3.7 0 7.2 0.3 3.7 0.1 6.8 0.9 4-6.5 7.6-13.5 3.5-7 7.3-15.3-11.1 0.3-19.3-3.4-8.2-3.8-12.7-10.2-4.4-6.3-4.4-13.6 0-5.9 3.3-11.5 3.2-5.7 10.1-10.3 7.1-4.7 17.9-7.4 0.7-0.3 1.3-0.3 0.7 0 1.3 0 2.1 0 2.1 0.9 0 1.5-4.5 2.1-7.4 0.9-13 5.4-5.5 4.6-8.6 11-3 6.3-3 12.8 0 5.6 2.6 10.5 2.5 4.8 8 7.9 5.5 3 14.2 3 3.1 0 6.7-0.5 0.5-1.1 1.8-4.7 1.4-3.7 3.1-8.2 1.7-4.6 3.2-8.9 1.7-4.3 2.7-7.1 1.1-2.9 1.1-2.9 6.5-17 13.3-26.6 6.9-9.7 13.2-13.7 6.5-4 11.6-4 5.5 0 9 3.4 3.7 3.4 4 7.7 0.1 1.3 0.1 1.9 0 0.6 0 1.5 0 8.7-3.4 17.4-3.2 8.7-9.1 16.5-5.8 7.8-13.4 14.2-7.5 6.3-16.1 10.6-8.4 4.3-17.2 5.9-2.1 4.4-3.8 8-1.5 3.4-3.5 7.3-2 4-5.2 10.2-1 1.9-1.6 2.8-0.4 0.8-1.4 2.4 7.1 1.8 15.4 5 8.3 3.1 16.3 7.5 8.2 4.3 14.5 9.5 5 4 8.2 8.7 4-1.4 8.6-2.5 9.4-2.2 18-4.9 1.2-2.1 2.3-4.3 1.3-2.2 2.2-4.3 2.7-5.6 4.9-10.2-0.2 0.4-0.3 0.7-2.9 4.5-6.5 7.8-3.7 3.2-8.2 3.2-3.1 0-5.4-1-2.2-1.2-3.6-2.8-3 2.3-5.9 3.7-3 1.3-6 1.3-5.3 0-7.8-3.7-2.6-3.8-2.6-9.3 0-6.6 3-13.9 2.8-6.7 7.2-12.3 4.3-5.7 9.4-9.1 5.1-3.5 9.9-3.5 5.3 0 7.9 3.7 2.5 3.7 2.5 9.3 0 6.8-3 13.9-1.7 4-4.8 8.8-3.1 4.7-7 8.7 0.8 1.6 2.4 2.8 1.5 1.1 4.2 1.1 3.4 0 6.4-3 3.1-2.9 5.6-7.1 2.5-4.3 4.5-8.5 1.5-3.2 2.6-5.5l6.7-15.8q0.2-0.3 0.3-0.7 0.1-0.6 0.1-1.2 0-1.5-0.7-2.7-0.7-1.1-1-1.6l7.8-0.3q2.1-0.1 3 0.6 0.9 0.6 0.9 1.5 0 0.9-0.9 3.2l-11.3 27.8q-2 4.9-4.2 9.7-2.3 4.9-4.7 9.9 4.2-1.8 7.8-3.4 3.5-1.8 6.7-4.4 3.3-2.8 6.5-7.7 2.8-4.3 5.1-9 1.8-3.9 2.8-5.9l6.3-16.8q0.5-1.2 0.5-2.1 0-1.5-0.8-2.5-0.7-1.2-0.9-1.6l7.7-0.3q2.1-0.2 3 0.6 1 0.6 1 1.5 0 0.8-1 3.2l-11.7 28.8q0 0-0.9 1.9-0.7 1.8-0.8 2.4-0.4 2.2-0.6 2.8-0.1 0.6-0.1 0.7 0 0.2 0 1.2 0 1.9 0.8 3.2 1 1.4 3.3 1.4 1.4 0 3.2-0.9 1.8-0.9 2.7-1.8 3.5-3.8 6.9-10 3.5-6.4 6.5-12.6 0.3-0.9 0.8-1.3 2.6-5.4 5.2-10.5 2.8-5.3 4.7-7.4 2-2.2 5.2-2.2 1.1 0 2.4 0.5 1.3 0.3 2.5 0.3 0.9 0 1.3-0.2-2 1.2-5.1 5.9-3.1 4.6-6.3 10.6-3.3 6.1-5.8 11.4 2.7-3.4 5.5-6.8 3-3.4 6.5-6.5 3.4-3.1 8-6.3 4.8-3.4 9.3-5.6 4.5-2.2 7.2-2.2 1 0 1.4 0.1 0 0-1.5 3-1.6 2.8-4 7.5-2.2 4.6-4.6 9.9-2.4 5.1-4.4 10-1.8 4.7-2.4 8-0.4 1.9-0.4 3.5 0 2.4 0.8 3.1 0.9 0.8 1.8 0.8 2.7 0 5.7-3 2.9-3.1 5.6-7.5 2.8-4.5 5-8.6 0.6-1.2 1.1-2.2 0.3-0.6 0.5-1.2 6.5-14 13.3-28.2 6.8-14.1 13.4-27 2.4-4.4 4.3-6.9 2.2-2.5 5.5-2.5 1.3 0 3 0.4 1.7 0.5 3.2 0.2-1.8 2-5 7.2-3.1 5.2-7.1 12.4-3.8 7.2-8.2 15.6-4.2 8.3-8.4 16.9-4.1 8.4-7.6 15.8 2.8-3.9 5.8-7.3 2.9-3.4 5.7-5.9 3.1-2.9 7.8-6.2 4.8-3.2 9.4-5.6 4.8-2.3 7.6-2.3 1 0 1.4 0.1 0 0-1.5 3-1.6 2.9-3.9 7.5-2.3 4.6-4.8 9.9-2.4 5.3-4.3 10.2-1.8 4.7-2.4 7.8-0.4 2.3-0.4 4 0 2.3 0.9 3.2 0.8 0.7 1.8 0.7 2.4 0 5.2-3.1 2.8-3.1 5.5-7.5 2.7-4.6 4.8-8.8 0.5-1.1 1-2 0.3-0.9 0.7-1.9 2.8-7.5 9.1-15.6 4.1-5.2 9.9-8.3 5.9-3.2 11.6-3.2 3.2 0 6.2 1.2 2.9 1 5.2 3.5 1 1 1 2.4 0 0.8-0.7 1.4-0.7 0.6-1.9 0.3-1.5-5.1-6.6-5.1-2.4 0-5.5 1.6-4.8 2.6-10 8.7-5.1 6-8.9 12.5-0.5 0.9-1.8 3.4-1.1 2.5-2.3 5.6-1.1 3.1-1.5 6.1-0.2 0.9-0.2 1.3 0 0.3 0 1.1 0 4.8 3.6 4.8 4.2 0 9.6-6.5 3.6-4.7 6.6-9.9 2.9-5.1 6-11 2.1-4 4-6.7 1.8-2.6 5.2-2.6 1.5 0 3.1 0.4 1.5 0.5 3.2 0.2-1.1 1.1-3.1 4.4-1.8 3.2-3.9 7.4-2.1 4.1-3.8 8.4-1.7 4.3-2.4 7.4-0.2 0.8-0.4 2.5-0.2 1.6-0.2 2.3 0 4.2 2.3 4.2 2.2 0 4.8-2.8 2.6-2.8 5.2-7 2.5-4.1 4.6-8.2 2.1-4.3 3.4-7 0.6-1.5 1.7-1.5 0.7 0 0.7 1.1 0 0.4-0.4 1.6-1.7 3.7-4.1 8.4-2.4 4.6-5.2 9-2.8 4.3-5.9 7.2-3 2.9-6.1 3.1-1.5 0.2-3.5-0.7-2-0.9-3.5-3.2-1.4-2.4-1.4-6.7 0-3.5 1.2-8.5-1.7 2.8-4.3 6.9-2.7 4-5.8 7.1-2.7 2.6-5.1 3.8-2.4 1.2-4.4 1.2-3.6 0-5.9-3.4-2.2-3.5-2.2-9.1 0-0.9 0-1.8-1.3 2.4-2.9 4.7-2.8 4.3-6.3 7.1-3.4 2.8-7.3 2.8-2.8 0-5.8-2.1-3-2-3-7.5 0-1.6 0.3-3.4 0.3-1.9 1-4.3 0.9-2.9 2.8-6.5 2-3.7 5.1-9.1 1.4-2.5 1.4-4 0-1.8-1.7-1.8-1.4 0-3.8 1.5-2.4 1.5-6 5.2-3.6 3.5-8.8 10.3-5.2 6.8-11.1 19-1 2-2.3 2.1-1.1 0-3.1 0.2-1.2 0.1-2.5 0.2-1.3 0-2.1 0.8 1.4-3.1 2.9-6.3-1.3 1.5-2.8 2.7-3.5 3-7.6 3-2.8 0-5.9-2.1-3-2-3-7.6 0-1.7 0.3-3.4 0.3-2 1-4.2 1.1-2.9 2.7-6.3 1.5-3.4 5.1-9.3 0.9-1.6 1.1-2.5 0.3-0.9 0.3-1.5 0-1.8-1.6-1.8-1.3 0-3.8 1.5-2.4 1.5-6 5.2-3.6 3.5-8.5 10-4.8 6.5-11.1 19.2-1 1.9-2.3 2.1-1.1 0.1-3.2 0.3-1.4 0.1-2.7 0.2-1.3 0-2.1 0.8 1.7-3.7 3.4-7.3-1.5 1.7-3.1 3.2-3.4 2.9-7.4 2.9-5.2 0-7.3-3.1-2.1-3.2-2.1-7.4 0-1.2 0.1-2.5-2.7 4.7-5.7 8.1-3.3 3.7-8.2 6.7-4.9 2.8-12.6 5.7-3.3 6.4-7.7 13.3-4.4 6.8-9.9 12.9-5.5 5.9-12.1 9.7-6.5 3.7-14.4 3.7-7.3 0-10.4-3-2.9-3.1-2.9-7.2 0-4 2.1-8 1.9-4.3 5.5-7.2 3.5-3.1 7.7-5.2 2.1-1 4.4-1.9-1.6-2.4-4-4.6zm-29.4-62.1q9.6-2.2 18.7-8 9.2-5.9 16.5-14.1 7.3-8.4 11.7-18.2 4.4-9.9 4.4-20 0-2.6-1.3-4.2-1.3-1.6-3.7-1.6-3.2 0-8.3 3.8-5 3.7-11.5 12.6-6.5 8.7-14 24 0 0-1.9 3.9-1.9 3.8-4.8 9.7-2.9 5.8-5.8 12.1zm-63.3 65.1q3.1 0 6.6-0.9 3.7-0.9 7.7-2.8 11.8-6 21.8-21-3.2-0.7-6.8-1-3.5-0.4-7.2-0.4-3.8 0-7.8 0.4-4 0.5-7.8 1.6-9.4 2.7-14.5 6.8-4.9 4.2-4.9 8.4 0 3.7 3.5 6.4 3.5 2.5 9.4 2.5zm155.9-68.8q-2.1 0-3.6-1.5-1.2-1.6-1.2-3.8 0-2.8 2.1-4.9 2.1-2 4.6-2 2.3 0 3.7 1.5 1.4 1.4 1.4 3.5 0 2.8-2.1 5-2.1 2.2-4.9 2.2zm-53.4 52.6q3.8 0 8.1-3.9-1.1-1.7-1.7-3.7-0.5-1.9-0.5-3.5 0-2.7 1.1-4.6 1.3-1.9 3.8-1.9 1.8 0 3 1.5 1.2 1.3 1.2 3.1 0 0.4-0.1 0.9 0 0.3-0.1 0.7 2.4-3.4 4.5-8 4.6-10.5 4.6-17.2 0-3.4-1.3-5.4-1.2-1.9-3.8-1.9-2.9 0-6.4 2.7-3.4 2.6-6.7 7.1-3.1 4.4-5.5 9.9-2.2 5-3.6 9.7-1.3 4.6-1.3 8 0 2.9 1.1 4.7 1.2 1.8 3.6 1.8zm-15.5 47.3q4.6 0 9.5-2.9 5.1-3 9.8-7.4 4.6-4.6 8.4-9.3 4-4.7 6.4-8.3 0.8-1.1 1.5-2.6 0.7-1.5 1.4-3-6.7 1.9-14.9 4.3-8.2 2.2-14.4 5-6.8 3-10.6 8.4-3.8 5.4-3.8 9.6 0 2.8 1.6 4.6 1.7 1.6 5.1 1.6zm94.7-104q-2.2 0-3.6-1.5-1.2-1.6-1.2-3.8 0-2.8 2.1-4.9 2.1-2.1 4.6-2.1 2.3 0 3.7 1.5 1.4 1.5 1.4 3.6 0 2.8-2.1 5-2.1 2.2-4.9 2.2zm220.8 59.9q-3.9 0-6.4-4-0.7-1.2-1.3-3.1-0.5-1.9-0.5-4.3 0-1.3 0.1-2.6 0.2-1.5 0.6-3-2 3.3-4.7 7.3-2.5 3.8-5.9 6.8-3.2 2.8-7.3 2.8-1.4 0-3-0.5-3.8-1.2-5.5-4.1-1.5-3-1.5-7.1 0-4.6 1.7-10 1.8-5.5 4.5-10.7 2.8-5.1 5.8-8.8 4.2-5.2 9.7-8.3 5.5-3.1 11.1-3.1 5.1 0 9.6 2.8 2.1-4.1 4.5-9.1 2.4-5.2 4.8-10.2 2.4-5 4.2-9.2 1.9-4.2 2.8-6.4 2.2-5.2 4-6.5 2-1.5 4.6-1.5 1.6 0 3.4 0.4 2 0.3 3.8 0.2-0.8 0.9-3.5 5.1-2.5 4.2-6.1 10.7-3.5 6.5-7.6 14.3-3.9 7.7-7.9 15.6-3.8 7.8-7.1 14.9-3.3 7-5.3 12-0.5 1.2-1.6 4.8-1 3.6-1 6.2 0 2 0.8 3.4 0.9 1.4 2.8 1.4 2.7 0 5.4-2.8 2.8-3 5.3-7.1 2.6-4.3 4.5-8.3 0.1-0.1 0.1-0.1 0.5-1.8 1.2-3.6 2.8-7.5 9.2-15.6 4.1-5.2 9.8-8.3 6-3.2 11.6-3.2 3.2 0 6.2 1.2 2.9 1 5.2 3.5 1 1 1 2.4 0 0.8-0.7 1.4-0.7 0.6-1.8 0.3-1.6-5.1-6.7-5.1-2.4 0-5.5 1.6-4.8 2.6-10 8.7-5 6-8.8 12.5-0.6 0.9-1.9 3.4-1.1 2.5-2.2 5.6-1.2 3.1-1.6 6.1-0.1 0.9-0.1 1.3 0 0.3 0 1.1 0 4.8 3.5 4.8 4.2 0 9.6-6.5 3.6-4.7 6.6-9.9 3-5.1 6.1-11 2.1-4 3.9-6.7 1.8-2.6 5.2-2.6 1.6 0 3.1 0.4 1.6 0.5 3.3 0.2-1.2 1.1-3.1 4.4-1.9 3.2-4 7.4-2.1 4.1-3.8 8.4-1.7 4.3-2.4 7.4-0.1 0.8-0.4 2.5-0.1 1.6-0.1 2.3 0 4.2 2.2 4.2 2.3 0 4.8-2.8 2.7-2.8 5.2-7 2.5-4.1 4.7-8.2 2.1-4.3 3.3-7 0.6-1.5 1.7-1.5 0.7 0 0.7 1.1 0 0.4-0.4 1.6-1.7 3.7-4.1 8.4-2.4 4.6-5.2 9-2.8 4.3-5.9 7.2-3 2.9-6.1 3.1-1.5 0.2-3.5-0.7-2-0.9-3.5-3.2-1.4-2.4-1.4-6.7 0-3.5 1.3-8.5-1.7 2.8-4.4 6.9-2.7 4-5.8 7.1-2.7 2.6-5.1 3.8-2.4 1.2-4.3 1.2-3.7 0-5.9-3.4-2.3-3.5-2.3-9.1 0-0.7 0-1.5-0.9 1.6-1.8 3.1-3 4.6-6.7 7.7-3.6 2.9-7.8 2.9zm-24.4-4.4q1.9 0 4.9-2.2 3-2.4 6.3-7.4 4-5.9 9.1-14.8 5-8.8 10-18.7-1.9-1.8-4.3-1.8-3.9 0-8.8 3.9-4.8 3.8-9.5 9.7-4.5 5.9-7.6 11.9-2.1 4.2-3.1 7.6-0.8 3.4-0.8 5.9 0 5.9 3.8 5.9zm315.9 21.4q-2.1-0.3-5.8-1.1-3.7-0.8-7.5-3.2-3.8-2.4-6.4-7.1-2.7-4.9-2.7-12.8 0-9.2 3.5-20.1 3.7-11.1 8.9-23 5.2-12 10-23.6 3.8-9.3 3.8-14.2 0-4.9-3.5-4.9-4 0-11.9 6.7-7.7 6.5-18 19.8-2.7 3.5-6.9 9.8-4.2 6.2-9 13.9-4.8 7.5-9.5 15.4-4.5 7.6-8 14.1-3.4 6.5-4.9 10.4-1.9 4.5-4.3 6.3-2.4 1.6-4.5 1.6-1.8 0-3.2-1-1.3-1-1.3-2.5 0-0.9 0.4-1.5 0.9-1.8 4.6-8.6 3.6-6.7 8.3-18 4.6-11.3 8.8-26.2 4.4-15.1 6.5-33.2 0.3-2.1 0.3-4.5 0-5.1-1.7-7.5-1.7-2.5-4.5-2.5-3.1 0-7 2.8-4 2.8-8.1 8.1-7 9.3-12.4 17.3-5.3 7.8-9.8 15.6-4.4 7.9-8.8 16.7-4.2 8.9-9 19.9-4.8 11-11 25.4-1 2.4-3.4 3.4-2.2 1-4.2 1-2 0-3.2-0.8-1.3-0.9-0.9-2.5 3.7-6 7.9-15 4.2-9 8.5-19.6 4.3-10.8 8-21.7 3.8-11 6.5-20.8 2.7-9.9 3.7-17.1 0.2-2.4 0.4-4.4 0.1-2.1 0.1-4 0-11.4-4.6-16.2-4.5-4.9-11.7-4.9-6.1 0-13.3 2.9-7 2.8-14.3 7.9-7.2 5-13.9 11.6-6.6 6.5-11.7 14-5 7.4-7.7 15.1-1.8 5.4-2.8 10.5-0.9 4.8-0.9 9.1 0 8.3 2.9 14 2.9 5.8 7.7 8.7 4.9 3 10.6 3 1.9 0 4.3-0.4 2.6-0.6 4.3-1.2 4.1-1.7 7.9-5 3.8-3.6 6.7-8.2 3-4.5 4.7-9.3 1.7-4.7 1.7-8.8 0-4.3-2.3-7.1-2.2-2.8-7.2-2.8-0.5 0-1.2 0.1-0.6 0-1.3 0h-0.4q-1 0-1.9-0.2-0.8-0.5-0.8-1.1 0-0.6 1.4-1.3 1.5-0.7 5.5-0.7 6.3 0 9.4 3.9 3.3 3.9 3.3 9.9 0 5.5-2.8 11.8-2.9 6.4-8.5 12.1-5.6 5.8-14.2 9.5-5.1 2-9.9 2-7 0-13.4-3.6-6.3-3.9-10.3-10.8-3.9-7.1-3.9-16.7 0-4.3 0.8-9 1-4.9 3.1-10 4.7-11.4 12.6-21 8-9.7 17.7-16.8 9.7-7.2 19.8-11.2 10-4 18.6-4 10.4 0 17.1 6.5 6.9 6.5 6.9 20.9 0 1.1-0.1 2.8 0 1.7-0.1 2.5-0.9 7.6-3 15.1-2 7.5-4.4 14.5-0.4 1.1-0.7 2.5-0.1 1.2-0.1 1.6 0 0.7 0.3 0.7 0.5 0 2.2-3.1 3.3-6.2 5.8-10.7 2.7-4.8 5.2-8.6 2.6-3.8 5.5-7.8 3-4 6.8-8.9 4.3-5.4 10-8.7 5.6-3.2 10.8-3.2 4.7 0 7.9 3.2 3.3 3.3 3.3 11.1 0 0.9 0 1.5 0 0.6-0.2 1.7-1.2 14.2-5.3 27.9-4.1 13.6-8.5 27.5 4.4-7.1 11.8-18 7.5-11 16.4-22.6 10.8-14.2 20.1-21.3 9.3-7 15.4-7 7.6 0 7.6 9.7 0 3.7-1.4 8.9-1.3 5.1-4.1 10.9-3.1 6.5-6.9 15-3.7 8.4-7 17.7-3.4 9.3-5.7 18.3-2.1 8.9-2.1 16.4 0 8.1 3.5 13.3 3.7 5 12.6 4.7h0.8q2.1 0 2.1 0.9 0 0.6-1.4 1.2-1.4 0.6-3.9 0.3zm34.2-16.6q-1.5 0.2-3.5-0.7-2-0.9-3.5-3.2-1.4-2.4-1.4-6.7 0-3.5 1.2-8.5-1.7 2.8-4.3 6.9-2.7 4-5.8 7.1-2.7 2.6-5.1 3.8-2.4 1.2-4.3 1.2-3.7 0-6-3.4-2.2-3.5-2.2-9.1 0-5.9 2.8-13.5 2.8-7.5 9.2-15.6 4-5.2 9.8-8.3 5.9-3.2 11.6-3.2 3.2 0 6.2 1.2 2.9 1 5.2 3.5 1 1 1 2.4 0 0.8-0.7 1.4-0.7 0.6-1.9 0.3-1.5-5.1-6.6-5.1-2.4 0-5.5 1.6-4.8 2.6-10 8.7-5.1 6-8.9 12.5-0.5 0.9-1.8 3.4-1.1 2.5-2.2 5.6-1.2 3.1-1.6 6.1-0.1 0.9-0.1 1.3 0 0.3 0 1.1 0 4.8 3.5 4.8 4.2 0 9.6-6.5 3.6-4.7 6.6-9.9 2.9-5.1 6-11 2.2-4 4-6.7 1.8-2.6 5.2-2.6 1.6 0 3.1 0.4 1.6 0.5 3.2 0.2-1.1 1.1-3.1 4.4-1.8 3.2-3.9 7.4-2.1 4.1-3.8 8.4-1.7 4.3-2.4 7.4-0.1 0.8-0.4 2.5-0.2 1.6-0.2 2.3 0 4.2 2.3 4.2 2.2 0 4.8-2.8 2.7-2.8 5.2-7 2.5-4.1 4.6-8.2 1.2-2.4 2.1-4.2 4.1-9.1 7-18.4 3.1-9.8 4.5-18 0.4-2.4 1.5-3.4 1.2-1.2 2.4-1.2 1.9 0 3.4 1.9 1.6 1.8 1.6 5.2 0 0.6-0.2 1.3 0 0.8-0.1 1.5-0.6 3.1-3.4 5.9-2.7 2.6-4.4 4 1.4 0.1 3 0.3 1.5 0 3.4 0 6.6 0 13.1-0.9 0.2 0.9 0.2 1.3 0 1.9-1.1 4.9-1 2.9-2.1 5.3-0.6 1.3-2.2 4.9-1.7 3.4-3.7 7.8-2 4.3-3.4 8.5-1.3 4.2-1.3 7.1 0 3.9 2.9 3.9 2.1 0 4.6-2.8 2.5-3 4.9-7.1 2.6-4.3 4.5-8.3 1.1-2 1.9-3.7l7-18.7q0.4-1.2 0.4-2.1 0-1.5-0.7-2.5-0.7-1.2-0.9-1.6l7.7-0.3q2.1-0.2 3 0.6 1 0.6 1 1.5 0 0.8-1 3.2l-11.7 28.8q0 0-0.9 1.9-0.7 1.8-0.8 2.4-0.4 2.2-0.6 2.8-0.1 0.6-0.1 0.7 0 0.2 0 1.2 0 1.9 0.8 3.2 1 1.4 3.3 1.4 1.4 0 3.2-0.9 1.8-0.9 2.7-1.8 3.5-3.8 6.9-10 2.1-3.8 4-7.6 0.4-1.1 0.8-2.2 2.8-7.5 9.1-15.6 4.1-5.2 9.9-8.3 5.9-3.2 11.6-3.2 3.2 0 6.2 1.2 2.9 1 5.2 3.5 1 1 1 2.4 0 0.8-0.8 1.4-0.7 0.6-1.8 0.3-1.5-5.1-6.6-5.1-2.4 0-5.5 1.6-4.8 2.6-10 8.7-5.1 6-8.9 12.5-0.5 0.9-1.8 3.4-1.1 2.5-2.3 5.6-1.1 3.1-1.5 6.1-0.2 0.9-0.2 1.3 0 0.3 0 1.1 0 4.8 3.6 4.8 4.2 0 9.5-6.5 3.7-4.7 6.7-9.9 2.9-5.1 6-11 2.1-4 4-6.7 1.8-2.6 5.2-2.6 1.5 0 3.1 0.4 1.5 0.5 3.2 0.2-1.1 1.1-3.1 4.4-1.8 3.2-3.9 7.4-2.1 4.1-3.8 8.4-1.7 4.3-2.4 7.4-0.2 0.8-0.4 2.5-0.2 1.6-0.2 2.3 0 4.2 2.3 4.2 2.2 0 4.8-2.8 2.6-2.8 5.2-7 2.5-4.1 4.6-8.2 2.1-4.3 3.4-7 0.6-1.5 1.7-1.5 0.7 0 0.7 1.1 0 0.4-0.4 1.6-1.7 3.7-4.1 8.4-2.4 4.6-5.2 9-2.8 4.3-5.9 7.2-3 2.9-6.1 3.1-1.5 0.2-3.5-0.7-2-0.9-3.5-3.2-1.5-2.4-1.5-6.7 0-3.5 1.3-8.5-1.7 2.8-4.4 6.9-2.6 4-5.7 7.1-2.7 2.6-5.1 3.8-2.4 1.2-4.4 1.2-3.6 0-5.9-3.4-2.2-3.5-2.2-9.1 0-1.1 0-2.2-1.1 2-2.4 4.1-2.9 4.4-6.2 7.4-3.4 2.9-7.4 2.9-5.2 0-7.3-3.1-2.1-3.2-2.1-7.4 0-1.4 0.2-2.9-0.7 1.2-1.5 2.3-2.5 4.2-5.6 7.3-3 2.9-6.5 3.8-0.4 0.2-1.5 0.2-2.7 0-5.4-2.3-2.7-2.3-2.7-7.5 0-4 1.9-9.1 1.6-5.1 4.5-9.8 2.9-4.7 4.2-7.6 0.4-1.2 0.4-2.1 0-2.7-3.2-3.9-3.1-1.1-8.2-1.3l-1.7 4.9q-1.5 4.7-4.4 11.1-2.6 6.3-6 12.2-2 3.7-4.1 6.4-2.5 3.6-5.2 6.1-3 2.9-6.1 3.1zm71.7-60.3q-2.1 0-3.5-1.5-1.2-1.6-1.2-3.8 0-2.8 2.1-4.9 2.1-2.1 4.6-2.1 2.3 0 3.7 1.5 1.4 1.5 1.4 3.6 0 2.8-2.1 5-2.1 2.2-5 2.2z"/>
	</g>
</svg>